<?xml version="1.0" encoding="utf-8"?>
<!-- Generator: Adobe Illustrator 23.1.0, SVG Export Plug-In . SVG Version: 6.00 Build 0)  -->
<svg version="1.1" xmlns="http://www.w3.org/2000/svg" xmlns:xlink="http://www.w3.org/1999/xlink" x="0px" y="0px"
	 viewBox="0 0 841.89 595.28" style="enable-background:new 0 0 841.89 595.28;" xml:space="preserve">
<style type="text/css">
	.st0{fill:#290F39;}
	.st1{fill:#245E2F;}
	.st2{fill:none;stroke:#290F39;stroke-width:0.5;stroke-miterlimit:10;}
	.st3{fill:none;stroke:#245E2F;stroke-width:2;stroke-miterlimit:10;}
	.st4{fill:#FFFFFF;}
</style>
<g id="Layer_1">
	<g>
		<g>
			<g>
				<path class="st0" d="M357.2,371.66c-1.52,3.59-3.22,6.99-5.29,10.22c-0.81,1.11-1.62,2.03-2.81,2.78
					c-1.18,0.84-2.46,1.03-3.84,0.59c-3.31-0.88-5.25-3.15-6.12-6.43c-0.19-0.91-0.39-1.83-0.4-2.74
					c-0.13-3.57-0.08-7.14,0.61-10.72c0.17-0.92,0.44-1.84,0.7-2.66c0.18-0.82,0.45-1.1,1.27-1.11c1.46-0.11,2.66,0.25,3.86,0.96
					c0.64,0.45,1.02,1.09,0.85,2l-0.61,3.12c-0.96,4.13-1.28,8.25-0.68,12.45c0.1,1.01,0.39,2.01,0.95,2.92
					c0.19,0.37,0.37,0.45,0.74,0.27c0.73-0.28,1.36-0.75,1.91-1.21c2.35-2.22,4.07-4.71,5.59-7.48c1.88-3.41,3.4-6.99,4.91-10.58
					c0.27-0.74,0.62-1.38,0.98-2.12c0.27-0.64,0.72-0.92,1.36-0.93c1.47-0.02,2.75,0.52,3.77,1.42c0.46,0.45,0.56,0.91,0.38,1.55
					c-0.44,1.84-0.69,3.67-0.94,5.5c-0.25,2.11-0.41,4.21-0.48,6.41c-0.06,2.56,0.06,5.22,0.09,7.78c0.12,2.38,0.6,4.57,1.36,6.85
					c0.47,1.09,1.03,2.18,1.87,3.09c2.41,2.99,5.26,3.6,8.72,2.01c2-0.94,3.73-2.33,5.17-3.9c2.98-3.24,5.78-6.56,7.94-10.43
					c1.89-3.04,3.41-6.35,4.84-9.67l1.25-2.58c0.18-0.28,0.27-0.55,0.63-0.47c0.28,0.18,0.37,0.45,0.28,0.73
					c-0.17,0.92-0.44,1.84-0.79,2.66c-1.69,4.05-3.75,8.01-6.18,11.69c-2.34,3.78-5.04,7.2-8.21,10.25c-1.9,1.94-4.17,3.43-7.1,3.83
					c-1.1,0.2-2.29,0.03-3.39-0.33c-4.04-1.24-6.91-3.77-8.69-7.68c-1.03-2-1.33-4.19-1.63-6.39c-0.69-4.3-0.83-8.69-0.7-12.99
					c0.08-1.28-0.03-2.56-0.05-4.03L357.2,371.66z"/>
				<path class="st0" d="M394.52,380.52c0.97-3.21,2.22-6.34,3.83-9.38c1.08-1.84,2.34-3.51,3.97-4.99
					c2.08-1.95,5.38-1.34,7.05,0.47c0.65,0.73,0.93,1.64,1.04,2.55c0.21,2.01,0.05,4.03-0.21,6.04c-0.51,3.85-1.01,7.79-1.15,11.64
					c-0.06,3.2-0.02,6.41,0.93,9.51c0.29,1,0.57,2.01,1.31,2.82c0.56,0.72,1.29,0.99,2.21,0.89c1.64-0.29,3.01-1.04,4.19-2.06
					c1.72-1.39,2.99-3.06,4.06-4.9c2.7-4.24,4.84-8.75,6.53-13.44c0.97-2.94,1.95-5.88,3.01-8.82c0.09-0.37,0.17-0.73,0.36-1.01
					c0.18-0.18,0.45-0.28,0.73-0.19c0.28,0.09,0.37,0.27,0.28,0.55c-0.09,0.46-0.08,0.83-0.26,1.29c-0.89,2.66-1.77,5.51-2.75,8.18
					c-2.13,5.7-4.63,11.22-8.05,16.2c-0.72,1.01-1.44,1.94-2.26,2.86c-3.89,4.07-10.94,3.6-14.11-1.49c-1.03-1.82-1.6-3.74-1.8-5.75
					c-0.41-4.02,0.1-7.87,0.87-11.73c0.61-3.21,1.39-6.24,2-9.36c0.17-1.01,0.34-2.11,0.24-3.11c-0.01-0.92-0.47-1.28-1.39-0.99
					c-0.64,0.19-1.28,0.47-1.82,0.94c-2.09,1.67-3.62,3.79-4.87,6.19c-1.97,3.87-3.11,8.09-3.52,12.49
					c-0.09,0.09-0.09,0.28-0.09,0.37c-0.17,0.73-0.17,1.47-1.17,1.66c-1.1,0.2-2.2-0.07-2.66-0.98c-0.84-1.27-1.31-2.73-1.7-4.19
					c-1.26-6.03-1.42-12.07-1.12-18.2c0.39-6.5,1.23-12.92,3.08-19.26c1.23-4.41,3.01-8.64,5.53-12.51
					c1.35-2.03,2.88-3.97,4.79-5.46c1.18-0.93,2.45-1.58,3.82-1.97c3.1-0.86,7.88,0.83,9.39,4.75c0.85,2.37,1.15,4.66,0.9,7.13
					c-0.67,5.68-2.62,11.01-5.22,16.08c-1.88,3.68-4.04,7.09-6.84,10.15c-2.53,2.96-5.62,5.28-8.98,7.06
					c-0.46,0.19-0.64,0.37-0.63,0.92c-0.06,3.2-0.02,6.5,0.11,9.79C394.43,381.07,394.43,380.8,394.52,380.52z M394.67,369.54
					c3.63-2.24,6.81-5.02,9.33-8.53c4.59-6.55,7.63-13.72,9.09-21.61c0.43-2.2,0.77-4.4,0.38-6.59c-0.29-1.74-0.86-3.29-2.07-4.65
					c-1.11-1.27-2.21-1.44-3.76-0.69c-1.09,0.56-2,1.31-2.9,2.32c-2.53,2.86-4.32,6.18-5.75,9.67c-2.58,6.25-3.51,12.95-4.17,19.63
					c-0.25,2.57-0.49,5.13-0.55,7.7c-0.08,0.92-0.16,1.92-0.06,2.84C394.4,369.72,394.58,369.63,394.67,369.54z"/>
				<path class="st0" d="M446.08,355.64c-0.06,2.75-1.05,4.68-2.77,6.07c-0.45,0.37-0.91,0.74-1.55,0.66
					c-0.64,0.01-0.83-0.26-0.56-0.91c0.27-0.46,0.45-1.01,0.53-1.65c0.09-0.46-0.01-0.82-0.56-1c-1.65-0.69-2.36-1.95-2.13-3.43
					c0.16-1.02,0.83-1.93,1.78-2.34c0.15-0.07,0.29-0.11,0.41-0.13c1.28-0.2,2.07-0.38,3.49,0.38
					C445.81,353.87,445.98,355.01,446.08,355.64z"/>
				<path class="st0" d="M477.3,380.83l8.74-4.22c3.28-1.59,6.28-3.55,9.09-5.87c0.81-0.65,1.35-1.57,2.17-2.22
					c0.18-0.18,0.36-0.46,0.63-0.65c0.27-0.19,0.55-0.19,0.73,0.08c0.28,0.18,0.1,0.36,0.01,0.64c-0.54,0.92-1.17,1.94-1.98,2.77
					c-1.36,1.39-2.9,2.5-4.54,3.71c-2.45,1.77-5.18,3.17-7.91,4.48c-2.55,1.31-5.1,2.53-7.64,3.93c-0.45,0.19-0.63,0.47-0.63,1.01
					c0.43,5.58,0.76,11.07,0.46,16.65c-0.24,3.39-0.56,6.78-1.26,10.08c-0.61,2.94-1.58,5.78-2.83,8.54
					c-1.07,2.3-2.42,4.42-4.14,6.27c-2.17,2.22-4.9,3.44-7.92,3.93c-2.56,0.39-5.03,0.06-7.42-0.83c-4.41-1.69-7.01-4.86-7.89-9.43
					c-0.78-3.84-0.18-7.5,1.34-11.18c1.78-4.32,4.58-8.11,7.74-11.53c4.61-4.9,9.78-8.99,15.7-12.17l0.09,0
					c1.09-0.65,1.09-0.65,0.99-1.84l-0.93-9.14l-0.51-4.57c0-0.18,0-0.28-0.1-0.46c-0.27,0.09-0.27,0.37-0.36,0.55
					c-1.33,3.77-3.31,7.27-5.46,10.68c-0.81,1.29-1.89,2.49-2.98,3.51c-1.18,1.11-2.46,1.22-3.93,0.59
					c-2.02-0.89-3.23-2.53-3.8-4.53c-0.57-1.73-0.77-3.47-0.79-5.3c-0.04-3.48,0.2-6.87,0.98-10.26c0.17-0.92,0.44-1.84,0.89-2.66
					c0.63-1.38,1.54-1.66,2.92-1.13l0.74,0.45c1.38,0.81,1.67,1.54,1.04,3.01c-1.07,2.57-1.59,5.33-1.92,8.17
					c-0.25,2.29-0.22,4.58-0.11,6.87c0.01,1.01,0.21,2.01,0.58,2.92c0.38,1,0.47,1.09,1.29,0.54c0.91-0.47,1.63-1.12,2.27-1.86
					c2.08-2.59,3.69-5.44,5.31-8.3c1.16-2.21,1.96-4.6,2.85-6.99c0.26-0.83,0.16-1.65,0.34-2.57c0.09-0.55,0.17-1.1,0.44-1.65
					c0.27-0.55,0.63-0.74,1.28-0.66c0.64,0.08,1.28,0.35,1.84,0.71c0.83,0.54,1.11,1.18,0.94,2.19c-0.26,1.38-0.06,2.84,0.14,4.21
					c0.4,2.83,0.79,5.67,1.29,8.5c0.29,1.74,0.5,3.47,0.61,5.21c0,0.18,0.1,0.36,0.1,0.55C476.39,381.39,476.84,381.11,477.3,380.83
					z M470.77,386.58l-0.73,0.38c-5.09,2.9-9.63,6.51-13.7,10.59c-2.54,2.5-4.88,5.27-6.59,8.4c-2.34,4.05-3.66,8.28-2.87,13.03
					c0.3,2.38,1.15,4.47,2.72,6.29c2.78,3.08,6.45,3.59,10,2.17c2.1-0.76,3.73-2.24,5.08-3.99c1.8-2.31,2.96-5.07,3.85-7.92
					c1.06-2.94,1.76-5.97,2.09-9.18c0.76-5.5,0.97-11.09,0.64-16.67c-0.01-1.01-0.11-2.01-0.22-3.11L470.77,386.58z"/>
				<path class="st0" d="M499.94,384.33c-1.47-0.35-2.58-1.16-3.32-2.52c-0.84-1.46-1.13-3.1-1.24-4.75
					c-0.12-2.93,0.58-5.68,1.37-8.44c0.35-1.38,0.79-2.66,1.51-3.86c1.17-2.03,2.8-3.33,5.08-3.9c1.09-0.29,2.2-0.21,3.3,0.15
					c0.92,0.26,1.66,0.9,2.13,1.81l0.94,1.82c1.36-0.75,2.65-0.49,3.94,0.14c0.92,0.36,1.11,0.72,0.93,1.73
					c-0.7,3.03-0.94,6.14-0.99,9.26c-0.06,3.11,0.16,6.22,1.39,9.23c0.56,1.28,1.4,2.27,2.51,3.18c0.74,0.63,1.57,0.8,2.57,0.52
					c2.46-0.76,4.46-2.25,5.99-4.28c2.17-2.86,3.59-5.99,4.65-9.39c0.62-1.93,1.05-3.86,1.31-5.96c0-0.27,0.18-0.55,0.26-0.83
					c0.09-0.18,0.18-0.28,0.27-0.28c1.34-2.94,3.88-4.99,7.53-5.67c5.11-0.97,10.71,0.25,15.76,1.38
					c5.51,1.22,10.93,2.99,16.52,3.93c8.71,1.55,18.62,3.36,27.19,0.52c3.65-1.23,7.74-3.48,9.34-7.24
					c1.16-2.76,0.64-8.06-2.21-9.68c-0.28-0.18-0.1-0.55,0.18-0.55c1.84,0.53,3.31,0.88,4.6,2.42c1.11,1.36,1.69,3.37,1.71,5.11
					c0.14,4.3-2.93,8.18-6.38,10.51c-7.63,5.3-17.43,4.32-26.06,2.58c-6.7-1.3-13.31-3.05-19.83-4.9
					c-5.88-1.58-12.03-3.43-18.16-3.27c-2.38,0.03-4.94,0.42-6.94,1.91c-1.27,0.93-2.08,2.13-2.71,3.42l0.01,0.73
					c-1.04,5.6-2.81,10.92-5.96,15.72c-1.26,2.03-2.89,3.6-5.07,4.63c-1.55,0.66-3.1,0.86-4.66,0.42c-3.03-0.79-5.15-2.59-6.56-5.42
					c-1.12-2.19-1.61-4.56-1.91-6.93l-0.31-3.02c-0.37,0.1-0.36,0.46-0.36,0.64c-0.8,2.02-1.69,4.05-2.77,5.98
					c-0.36,0.65-0.81,1.2-1.26,1.75C503.15,384.38,501.69,384.77,499.94,384.33z M503.84,380.81c1.35-1.75,2.25-3.78,3.05-5.8
					c1.07-2.76,2.14-5.43,2.19-8.45c0-0.18,0-0.37-0.1-0.55c-0.38-1.09-0.85-2.28-1.68-3.09c-1.3-1.27-1.75-0.99-2.84-0.06
					c-1,0.92-1.62,2.12-2.16,3.32c-0.8,2.11-1.23,4.22-1.58,6.42c-0.34,2.02-0.69,3.94-0.57,6.05c0.01,1.19,0.3,2.38,0.77,3.47
					c0.38,0.91,0.56,0.91,1.28,0.35C502.85,382.01,503.39,381.45,503.84,380.81z"/>
			</g>
			<g>
				<path class="st0" d="M343.2,404.26c-12.44,0.4-20.03-25.35-23.35-37.86c36.06-6.45,37.52-42.38,3.13-37.59
					c-14.25,1.94-22.86,8.99-25.37,14.5c-0.04,0.09-0.12,0.17-0.12,0.27c0.02,0.51,1.23,0.78,1.59,0.08
					c0.02-0.04,0.04-0.09,0.06-0.13c3.66-7.83,17.01-12.59,24.44-13.46c27.88-3.19,22.89,28.21-4.26,34.73
					c-1.13-2.66-3.53-4.46-5.72-5.59c1.26-2.93,4.79-10.11,5.99-12.77c1.8-4.19,0.53-5.79-3.66-8.05c-2.13-0.8-0.47,0.67-1.6,4.19
					c-1.8,4.79-3.59,10.11-5.79,15.44c-3.33,0-6.12,1.73-6.05,4.79c0.07,1.4,0.93,2.86,2.73,3.86c-2.66,7.25-4.79,14.57-5.26,21.42
					c-0.53,6.72,3.19,9.11,3.06,4.92c0-1.2-0.27-2.59,0.27-4.79c1.6-6.32,4.13-13.64,6.92-20.62c1.66,0,2.93-0.07,4.52-0.33
					c2.06,11.51,11.04,39.05,28.34,38.39C343.6,405.59,345.4,404.19,343.2,404.26z M305.74,365.14c-0.93-0.47-1.6-1.26-1.6-2.4
					c0.07-1.26,1.66-2.59,3.66-2.86C307.14,361.61,306.41,363.34,305.74,365.14z M310.73,366.07l1.86-4.32
					c0.67,0.87,1.33,2.4,1.73,4.06C313.53,365.94,312.06,366.07,310.73,366.07z"/>
			</g>
			<path class="st0" d="M324.09,364.36c0.32-0.11,0.21-0.63-0.21-0.53c-1.48,0.53-7.92,2.01-7.92,2.01
				c-14.37,2.53-29.05,0.42-43.31-2.75c-7.71-1.8-15.42-3.91-23.35-3.17c-6.97,0.74-14.47,3.38-18.49,9.51
				c-1.9,2.96-2.64,6.66-1.59,10.04c1.16,3.38,3.38,4.65,6.66,5.49c0.42,0.11,0.63-0.42,0.32-0.53c-2.11-1.27-3.17-4.96-3.17-7.29
				c-0.11-3.17,1.37-5.81,3.59-7.92c5.39-4.86,12.78-5.81,19.75-5.81c7.29,0,14.47,1.48,21.66,2.75c7.29,1.27,14.58,2.22,21.87,2.32
				c5.54,0,11.09-0.48,16.54-1.72C316.7,366.7,322.82,364.89,324.09,364.36z"/>
		</g>
		<path class="st1" d="M423.12,303.42c-0.06,0.21-0.14,0.34-0.14,0.48c-0.01,0.35,0.01,0.71,0.03,1.06c0.15,2.95,0.35,5.9,0.44,8.86
			c0.1,3.11,0.12,6.23,0.15,9.34c0.02,2.52,0.04,5.05,0.01,7.57c-0.04,3.07-0.07,6.15-0.22,9.22c-0.15,3.15-0.39,6.29-0.69,9.43
			c-0.3,3.22-0.81,6.41-1.47,9.57c-0.12,0.58-0.29,1.15-0.64,1.64c-0.41,0.58-0.97,0.79-1.65,0.68c-1.08-0.17-1.93-1.52-1.46-2.52
			c0.72-1.51,0.98-3.15,1.32-4.77c0.73-3.52,1.23-7.07,1.56-10.64c0.43-4.63,0.73-9.27,0.76-13.93c0.02-3.35-0.01-6.7,0.08-10.05
			c0.15-5.13-0.05-10.25-0.19-15.37c-0.02-0.75-0.12-1.49-0.2-2.24c-0.02-0.19-0.09-0.37-0.17-0.69c-0.24,0.25-0.41,0.38-0.52,0.55
			c-1.51,2.28-3.32,4.31-5.36,6.12c-2.92,2.59-6.18,4.64-9.8,6.09c-2.46,0.99-5.03,1.6-7.67,1.92c-5.83,0.7-11.38-0.27-16.71-2.66
			c-3.48-1.56-6.63-3.64-9.53-6.09c-5.95-5.03-10.39-11.18-13.56-18.26c-1.86-4.15-3.15-8.48-3.91-12.98
			c-0.67-3.98-0.91-7.99-0.8-12.02c0.15-5.66,0.95-11.23,2.58-16.66c1.02-3.4,2.37-6.68,3.88-9.9c3.66-7.83,8.34-15.01,13.74-21.74
			c3.09-3.85,6.35-7.54,9.81-11.05c3.32-3.37,6.63-6.75,9.97-10.1c2.53-2.54,5.1-5.04,7.64-7.58c1.76-1.75,3.5-3.53,5.22-5.31
			c2.59-2.67,4.85-5.6,6.69-8.84c1.42-2.52,2.5-5.18,3.11-8.01c0.93-4.29,1.43-8.63,1.51-13.01c0.02-0.95,0.03-1.89,0.06-2.84
			c0.01-0.27,0.07-0.53,0.11-0.83c0.72-0.24,1.41-0.24,2.17-0.09c0.06,0.26,0.15,0.52,0.17,0.78c0.1,1.49,0.13,2.99,0.29,4.48
			c0.41,3.92,0.89,7.84,1.97,11.64c1.07,3.77,2.89,7.15,5.35,10.19c1.74,2.15,3.58,4.19,5.57,6.12c3.83,3.7,7.74,7.31,11.69,10.87
			c3.02,2.72,5.99,5.48,8.97,8.24c2.17,2.01,4.37,3.99,6.47,6.07c3.31,3.27,6.55,6.6,9.49,10.22c4.38,5.4,8.35,11.08,11.69,17.19
			c1.84,3.36,3.43,6.83,4.72,10.44c1.44,4.02,2.36,8.16,2.93,12.4c0.45,3.33,0.62,6.68,0.54,10.03c-0.07,3.15-0.33,6.29-0.89,9.41
			c-0.63,3.51-1.57,6.91-2.87,10.23c-0.99,2.54-2.22,4.96-3.63,7.3c-2.02,3.36-4.29,6.51-7.05,9.32c-3,3.06-6.31,5.72-10.08,7.78
			c-3.45,1.89-7.09,3.25-10.99,3.87c-2.27,0.36-4.54,0.45-6.83,0.29c-6.28-0.45-12.01-2.47-17.29-5.86
			c-1.93-1.24-3.7-2.69-5.29-4.34C423.9,304.07,423.63,303.67,423.12,303.42z M421.1,258.58c0.26-0.36,0.45-0.59,0.61-0.84
			c2.13-3.44,4.67-6.54,7.79-9.14c2.4-2.01,4.94-3.8,7.8-5.09c3.38-1.54,6.85-2.8,10.51-3.53c3.28-0.66,6.57-0.8,9.88-0.37
			c4.16,0.54,7.88,2.14,11.2,4.72c3.06,2.38,5.49,5.31,7.52,8.58c1.31,2.12,2.3,4.39,3.09,6.76c0.97,2.9,1.53,5.87,1.7,8.91
			c0.15,2.7-0.2,5.35-0.69,7.99c-0.26,1.43-0.64,2.85-1.07,4.24c-0.48,1.54-1.1,3.03-1.84,4.48c-1.5,2.94-3.42,5.56-5.74,7.91
			c-2.15,2.17-4.55,4.01-7.23,5.48c-3.21,1.76-6.61,2.93-10.25,3.44c-5.84,0.82-11.4,0.02-16.63-2.74c-3.31-1.74-6.26-3.95-8.62-6.9
			c-2.26-2.82-3.81-5.98-4.51-9.52c-0.63-3.2-0.66-6.43-0.15-9.65c0.66-4.14,2.16-7.97,4.39-11.52c2.77-4.4,6.42-7.85,11-10.32
			c2.87-1.55,5.92-2.57,9.12-3.17c2.19-0.42,4.38-0.54,6.59-0.31c4.3,0.44,7.94,2.25,10.9,5.37c2.48,2.61,4.25,5.67,5.3,9.12
			c0.44,1.43,0.82,2.89,1.04,4.36c0.46,3.07,0.29,6.13-0.46,9.15c-1.6,6.45-5.04,11.57-10.74,15.1c-2.94,1.82-6.14,2.84-9.57,3.15
			c-2.5,0.23-4.96-0.02-7.37-0.72c-3.7-1.08-6.82-3.06-9.19-6.12c-2.34-3.02-3.38-6.47-3.26-10.26c0.09-2.91,0.79-5.69,2.03-8.33
			c1.34-2.85,3.06-5.42,5.51-7.44c1.4-1.16,2.93-2.14,4.57-2.93c2.69-1.3,5.48-2.21,8.51-2.22c2.49-0.01,4.75,0.7,6.76,2.15
			c1.81,1.3,3.03,3.09,3.94,5.08c1.56,3.42,1.81,7.03,1.03,10.65c-0.99,4.63-3.61,8.21-7.73,10.55c-3.52,2-7.25,2.27-11.04,0.71
			c-4.27-1.76-5.8-6.07-5.27-9.49c0.52-3.37,2.07-6.17,4.66-8.39c1.8-1.55,3.83-2.61,6.19-3.01c0.97-0.17,1.89-0.03,2.78,0.32
			c1.62,0.63,2.46,1.94,2.81,3.55c0.46,2.06,0.27,4.09-0.69,5.99c-0.8,1.58-1.89,2.9-3.51,3.72c-0.92,0.47-1.87,0.6-2.87,0.35
			c-0.87-0.21-1.27-0.67-1.36-1.56c-0.09-0.91,0.16-1.71,0.75-2.42c0.45-0.55,0.9-1.1,1.35-1.64c0.33-0.41,0.55-0.87,0.61-1.39
			c0.02-0.17-0.05-0.36-0.1-0.62c-0.37,0.14-0.68,0.21-0.95,0.36c-1.91,1.1-3.16,2.69-3.58,4.89c-0.14,0.72-0.07,1.41,0.16,2.1
			c0.38,1.16,1.18,1.9,2.35,2.08c1.96,0.3,3.83,0.07,5.52-1.15c2.78-2.02,4.17-4.77,4.43-8.13c0.12-1.55-0.12-3.08-0.74-4.51
			c-0.97-2.22-2.56-3.67-5.07-3.89c-0.98-0.09-1.97,0-2.94,0.21c-2.01,0.42-3.8,1.32-5.44,2.51c-4.34,3.17-6.61,7.47-6.5,12.85
			c0.06,3.3,1.53,6,4.29,7.9c3.05,2.1,6.47,2.68,10.05,2.09c3.6-0.59,6.68-2.26,9.2-4.96c3.2-3.44,4.86-7.5,5-12.18
			c0.12-3.93-0.84-7.59-3.03-10.88c-3.02-4.55-7.36-6.38-12.71-5.84c-2.64,0.27-5.13,1.17-7.54,2.32c-3.68,1.76-6.67,4.31-8.99,7.65
			c-3.16,4.56-4.73,9.57-4.38,15.14c0.08,1.31,0.3,2.59,0.71,3.83c0.98,2.97,2.53,5.57,4.89,7.68c2.87,2.55,6.13,4.28,9.89,5.04
			c2.93,0.59,5.87,0.66,8.81-0.01c0.92-0.21,1.85-0.39,2.75-0.67c2.96-0.95,5.63-2.45,8.05-4.39c3.27-2.62,5.65-5.91,7.38-9.7
			c1-2.2,1.58-4.54,1.95-6.92c0.42-2.71,0.44-5.42,0-8.13c-0.69-4.23-2.22-8.12-4.74-11.61c-1.47-2.03-3.17-3.83-5.21-5.28
			c-2.21-1.57-4.66-2.6-7.36-3.07c-2.35-0.41-4.7-0.56-7.06-0.2c-4.09,0.63-7.97,1.96-11.58,3.95c-7.09,3.92-11.99,9.75-14.79,17.33
			c-1.64,4.43-2.24,8.99-1.73,13.71c0.28,2.58,0.93,5.04,1.96,7.39c1.38,3.15,3.39,5.85,5.92,8.17c4.96,4.55,10.76,7.22,17.47,7.83
			c0.86,0.08,1.73,0.09,2.6,0.09c2.25,0,4.5-0.19,6.69-0.68c4.25-0.95,8.12-2.75,11.7-5.21c2.16-1.48,4.05-3.25,5.82-5.17
			c2.4-2.61,4.27-5.56,5.71-8.78c0.9-2.02,1.55-4.12,2.11-6.27c0.55-2.11,0.81-4.27,0.91-6.42c0.11-2.44,0.08-4.89-0.35-7.31
			c-0.28-1.59-0.58-3.17-1.09-4.72c-1.05-3.24-2.48-6.3-4.37-9.15c-1.77-2.67-3.78-5.16-6.23-7.23c-3.56-3-7.6-5.05-12.23-5.85
			c-2.47-0.43-4.93-0.52-7.42-0.29c-1.49,0.14-2.96,0.45-4.42,0.75c-3.65,0.76-7.14,1.99-10.5,3.57c-4.37,2.04-8.2,4.84-11.5,8.37
			c-1.35,1.44-2.56,2.99-3.68,4.62c-0.22,0.33-0.44,0.65-0.44,1.07c0.01,0.83,0.01,1.65,0.02,2.48
			C420.92,258.22,420.98,258.29,421.1,258.58z M421.11,268.92c0.28-0.26,0.33-0.48,0.39-0.7c0.17-0.61,0.33-1.22,0.53-1.81
			c0.52-1.58,1.26-3.06,2.03-4.52c2.3-4.35,5.37-8.06,9.27-11.06c2.19-1.69,4.57-3.08,7.12-4.18c3.02-1.3,6.11-2.33,9.38-2.77
			c3.65-0.5,7.23-0.34,10.75,0.83c2.54,0.85,4.87,2.09,6.87,3.85c4.6,4.07,7.5,9.17,8.87,15.15c0.82,3.58,0.86,7.19,0.38,10.81
			c-0.41,3.11-1.33,6.08-2.77,8.87c-1.7,3.29-3.9,6.18-6.76,8.58c-4.07,3.4-8.67,5.56-13.95,6.18c-4.07,0.48-8.03,0.1-11.84-1.46
			c-3.11-1.27-5.89-3.05-8.12-5.58c-3.98-4.49-5.65-9.76-4.99-15.73c0.32-2.92,1.14-5.71,2.39-8.37c1.98-4.23,4.8-7.76,8.65-10.43
			c2.12-1.47,4.45-2.5,6.9-3.33c2.35-0.79,4.73-1.17,7.2-1.15c4.41,0.04,8.06,1.69,10.87,5.08c2.1,2.53,3.44,5.44,4.2,8.64
			c0.78,3.3,0.64,6.59-0.2,9.83c-0.68,2.61-1.85,5.03-3.49,7.19c-3.75,4.95-8.72,7.48-14.96,7.44c-2.78-0.02-5.38-0.75-7.74-2.24
			c-3.76-2.37-5.7-5.84-5.79-10.25c-0.09-4.54,1.67-8.46,4.62-11.84c2.18-2.5,5.01-4.06,8.15-5.04c1.67-0.52,3.42-0.6,5.16-0.37
			c1.36,0.18,2.56,0.75,3.58,1.69c1.56,1.44,2.5,3.24,2.92,5.29c0.52,2.57,0.38,5.1-0.61,7.55c-1.18,2.93-3.14,5.15-6,6.56
			c-1.91,0.94-3.86,1.02-5.87,0.41c-1.95-0.59-3.12-1.92-3.55-3.89c-0.33-1.51-0.15-2.98,0.48-4.39c0.96-2.14,2.58-3.65,4.62-4.73
			c0.48-0.26,1.02-0.43,1.55-0.57c0.71-0.19,1.23,0.07,1.57,0.72c0.43,0.8,0.5,1.65,0.29,2.53c-0.28,1.14-0.83,2.12-1.64,2.96
			c-0.25,0.25-0.5,0.5-0.74,0.77c-0.16,0.18-0.3,0.39-0.19,0.64c0.13,0.31,0.43,0.31,0.71,0.31c0.54,0,0.98-0.24,1.4-0.57
			c2.06-1.61,3.01-4.76,2.25-7.26c-0.58-1.89-2.11-2.3-3.48-2.13c-0.16,0.02-0.31,0.07-0.46,0.11c-2.91,0.79-5.12,2.54-6.79,5.01
			c-1.3,1.93-1.94,4.03-1.7,6.37c0.2,1.99,0.96,3.68,2.67,4.78c2.29,1.48,4.81,1.93,7.48,1.37c2.68-0.57,4.88-1.99,6.66-4.04
			c2.69-3.1,3.89-6.72,3.58-10.81c-0.2-2.64-0.99-5.1-2.61-7.24c-1.55-2.04-3.56-3.3-6.15-3.6c-1.91-0.22-3.78-0.02-5.61,0.55
			c-2.63,0.81-5,2.13-7.19,3.77c-1.5,1.12-2.72,2.5-3.74,4.07c-0.82,1.26-1.48,2.6-2.03,4c-1.25,3.15-1.72,6.38-1.09,9.74
			c0.34,1.85,1.06,3.54,2.16,5.07c2.38,3.32,5.6,5.4,9.57,6.26c4.13,0.89,8.17,0.41,12.02-1.32c4.89-2.19,8.36-5.84,10.6-10.67
			c1.5-3.23,2.18-6.64,2.06-10.22c-0.19-5.31-1.89-10.03-5.32-14.1c-2.75-3.27-6.28-5.09-10.51-5.5c-1.69-0.16-3.4-0.13-5.07,0.14
			c-4.64,0.74-8.84,2.55-12.62,5.32c-1.79,1.31-3.4,2.82-4.8,4.54c-2.71,3.32-4.54,7.1-5.61,11.23c-0.95,3.67-1.14,7.39-0.38,11.13
			c0.65,3.19,2.01,6.04,4,8.61c2.27,2.93,5.18,5.07,8.42,6.76c4.74,2.48,9.82,3.07,15.06,2.29c3.66-0.54,7.1-1.76,10.28-3.69
			c6.13-3.72,10.47-8.91,12.89-15.65c1.09-3.02,1.58-6.17,1.75-9.38c0.21-4-0.45-7.87-1.72-11.63c-1.37-4.05-3.6-7.63-6.49-10.76
			c-5.52-5.97-12.4-8.26-20.42-7.3c-2.12,0.25-4.18,0.79-6.22,1.4c-2.84,0.86-5.53,2.08-8.11,3.54c-3.8,2.13-7.02,4.93-9.76,8.3
			c-2,2.46-3.61,5.16-5.02,7.99c-0.22,0.44-0.32,0.88-0.32,1.36c0.02,1.34,0.02,2.68,0.04,4.02
			C420.99,268.44,421.05,268.61,421.11,268.92z M393.5,249.29c-0.03,0.27-0.07,0.39-0.05,0.49c0.3,1.16,1.19,1.93,2.45,2.07
			c1.25,0.14,2.44-0.09,3.54-0.71c2.06-1.15,3.44-2.85,4.06-5.14c0.78-2.86,0.38-5.56-1.26-8.03c-1.08-1.63-2.6-2.47-4.61-2.31
			c-0.79,0.06-1.56,0.21-2.3,0.5c-4.42,1.73-7.59,4.76-9.33,9.17c-1.29,3.29-0.96,6.49,0.97,9.49c2.51,3.9,7.75,5.59,11.45,4.87
			c6.11-1.19,10.16-4.75,12.28-10.55c0.67-1.83,0.91-3.73,0.87-5.69c-0.05-2.1-0.2-4.15-0.85-6.18c-1.01-3.12-2.68-5.78-5.18-7.9
			c-1.58-1.33-3.4-2.15-5.48-2.24c-1.9-0.09-3.77,0.14-5.6,0.71c-2.86,0.89-5.45,2.27-7.85,4.04c-3.54,2.6-6.3,5.82-8.03,9.88
			c-2.11,4.97-2.14,9.96,0,14.93c1.61,3.76,4.29,6.57,7.84,8.56c1.49,0.84,3.06,1.45,4.71,1.88c4.87,1.28,9.65,0.99,14.21-1.12
			c6.78-3.14,11.23-8.37,13.39-15.53c0.13-0.45,0.24-0.93,0.24-1.39c0.01-3.94,0.01-7.88-0.02-11.82c0-0.59-0.07-1.19-0.22-1.75
			c-0.56-2.06-1.3-4.05-2.3-5.94c-1.35-2.53-3.08-4.77-5.14-6.74c-3.97-3.8-8.67-5.31-14.11-4.43c-2.89,0.47-5.68,1.28-8.36,2.5
			c-4.79,2.19-9.07,5.07-12.62,9c-3.31,3.67-5.63,7.85-6.8,12.67c-1.19,4.91-1.07,9.77,0.47,14.58c1.67,5.21,4.62,9.55,9.01,12.86
			c3.39,2.56,7.15,4.27,11.3,5.18c2.37,0.52,4.74,0.77,7.16,0.63c0.51-0.03,1.02-0.03,1.54-0.04c2.42-0.09,4.78-0.57,7.06-1.37
			c3.52-1.25,6.74-3.07,9.62-5.45c0.97-0.8,1.86-1.7,2.78-2.56c0.37-0.34,0.54-0.76,0.5-1.27c-0.03-0.39-0.01-0.79-0.03-1.18
			c-0.01-0.14-0.09-0.27-0.17-0.5c-0.22,0.2-0.36,0.32-0.49,0.46c-3.13,3.34-6.7,6.08-10.94,7.91c-3.69,1.59-7.54,2.27-11.53,2.14
			c-3.34-0.11-6.56-0.84-9.66-2.1c-3.99-1.62-7.38-4.08-10.03-7.48c-2.77-3.56-4.47-7.58-5.02-12.07c-0.4-3.25-0.28-6.43,0.6-9.6
			c1.48-5.36,4.31-9.87,8.39-13.61c3.44-3.16,7.4-5.48,11.79-7.06c2.66-0.96,5.38-1.54,8.21-1.53c1.75,0,3.46,0.27,5.09,0.93
			c2.5,1.01,4.59,2.59,6.37,4.6c2.61,2.95,4.35,6.35,5.41,10.13c1.27,4.51,1.38,9.02,0.15,13.54c-1.14,4.21-3.32,7.8-6.59,10.73
			c-2.08,1.86-4.41,3.32-7.04,4.26c-2.12,0.77-4.31,1.31-6.58,1.28c-2.75-0.04-5.4-0.64-7.92-1.75c-1.82-0.8-3.49-1.84-4.9-3.26
			c-3.06-3.06-4.61-6.82-4.9-11.1c-0.13-2.03,0.26-4,0.91-5.92c1.26-3.71,3.43-6.81,6.4-9.35c1.72-1.46,3.62-2.67,5.68-3.6
			c2.24-1.02,4.56-1.75,7.07-1.66c1.12,0.04,2.19,0.23,3.22,0.68c1.59,0.71,2.86,1.79,3.92,3.15c1.25,1.61,2.12,3.4,2.71,5.35
			c0.85,2.82,0.98,5.69,0.32,8.53c-0.93,3.98-3.17,7.1-6.72,9.19c-3.01,1.78-6.16,2.19-9.53,0.94c-4.3-1.6-6.55-6.13-5.4-10.3
			c1.01-3.65,3.32-6.29,6.58-8.14c1.12-0.64,2.34-0.92,3.63-0.93c1.35-0.01,2.37,0.6,3.04,1.72c0.38,0.63,0.68,1.35,0.86,2.06
			c0.55,2.19,0.07,4.23-1.14,6.09c-1.1,1.7-2.68,2.51-4.73,2.27c-0.47-0.06-0.92-0.19-1.38-0.32
			C394.2,249.55,393.91,249.43,393.5,249.29z M395.15,245.29c-0.46,0.2-0.72,0.55-0.97,0.9c-0.24,0.33-0.2,0.68,0.1,0.96
			c1.25,1.16,3.16,1.4,4.44-0.3c1.31-1.74,1.55-3.67,0.82-5.71c-0.31-0.88-0.88-1.26-1.8-1.24c-0.47,0.01-0.94,0.09-1.4,0.2
			c-0.78,0.18-1.46,0.57-2.13,1c-2.3,1.52-3.85,3.6-4.57,6.25c-0.39,1.44-0.32,2.88,0.27,4.28c1.12,2.69,4.65,4.72,7.93,4.1
			c4.69-0.89,7.76-3.69,9.23-8.19c1.13-3.48,0.8-6.93-0.68-10.26c-0.63-1.42-1.48-2.7-2.61-3.76c-1.98-1.86-4.3-2.52-6.98-1.95
			c-2.75,0.58-5.21,1.76-7.5,3.35c-3.48,2.41-5.97,5.6-7.35,9.6c-0.61,1.76-0.97,3.57-0.84,5.46c0.07,1.11,0.34,2.18,0.63,3.24
			c0.8,2.95,2.41,5.39,4.86,7.22c3.98,2.96,8.45,3.99,13.31,3.06c4.59-0.88,8.29-3.32,11.27-6.9c1.43-1.72,2.42-3.68,3.24-5.74
			c0.86-2.15,1.24-4.4,1.35-6.69c0.12-2.46-0.2-4.89-0.84-7.26c-1.11-4.17-3.23-7.78-6.39-10.73c-1.79-1.68-3.9-2.8-6.32-3.3
			c-2.12-0.44-4.25-0.28-6.34,0.19c-3.97,0.89-7.6,2.56-10.97,4.83c-2.34,1.58-4.39,3.46-6.22,5.6c-2.4,2.8-3.99,6.04-5.07,9.54
			c-0.52,1.7-0.78,3.46-0.85,5.24c-0.1,2.3,0.2,4.56,0.83,6.78c0.73,2.56,1.81,4.97,3.33,7.15c2.69,3.84,6.34,6.45,10.69,8.06
			c3.28,1.21,6.69,1.77,10.21,1.6c3.23-0.15,6.31-0.92,9.24-2.27c2.74-1.26,5.23-2.92,7.45-4.96c1.37-1.26,2.59-2.65,3.66-4.17
			c0.24-0.35,0.52-0.75,0.56-1.15c0.07-0.82,0-1.65-0.03-2.47c0-0.05-0.11-0.1-0.21-0.19c-0.14,0.19-0.27,0.38-0.4,0.57
			c-0.43,0.66-0.83,1.35-1.3,1.97c-3.7,4.9-8.37,8.39-14.38,9.98c-3.15,0.83-6.3,0.96-9.49,0.45c-1.87-0.3-3.69-0.85-5.44-1.58
			c-1.98-0.82-3.83-1.87-5.44-3.29c-3.26-2.87-5.46-6.38-6.51-10.61c-0.75-2.99-0.9-5.97-0.24-9.01c1.16-5.32,3.86-9.72,7.88-13.3
			c3.56-3.17,7.7-5.32,12.34-6.48c1.46-0.37,2.95-0.53,4.46-0.45c2.65,0.14,4.98,1.11,6.99,2.83c2.23,1.91,3.82,4.28,4.98,6.96
			c1.54,3.56,2.01,7.29,1.56,11.11c-0.58,4.94-2.68,9.1-6.6,12.27c-1.9,1.54-4.02,2.66-6.37,3.27c-3.3,0.86-6.57,0.65-9.72-0.73
			c-2.42-1.05-4.39-2.64-5.75-4.92c-2.33-3.92-2.48-7.97-0.59-12.11c1.27-2.79,3.19-5.05,5.63-6.88c1.95-1.47,4.09-2.52,6.51-2.96
			c1.01-0.18,2.03-0.23,3.05-0.02c1.82,0.36,3.12,1.47,4.13,2.94c1.37,2.01,2.01,4.24,2,6.69c-0.01,2.23-0.53,4.29-1.75,6.16
			c-1.43,2.22-3.43,3.68-6,4.29c-1.97,0.48-3.77,0.06-5.24-1.39c-0.84-0.83-1.29-1.84-1.38-3.05c-0.21-3.07,1.99-6.33,4.97-7.31
			c0.41-0.13,0.82-0.28,1.26-0.11c0.6,1.22,0.62,1.82,0.08,2.91c-0.14,0.28-0.29,0.56-0.47,0.82c-0.33,0.5-0.7,0.59-1.2,0.27
			C395.75,245.77,395.45,245.52,395.15,245.29z M421.84,288.1c-0.08,0.01-0.15,0.02-0.23,0.03c-0.02,0.14-0.05,0.29-0.04,0.43
			c0.05,0.75,0.17,1.5,0.14,2.24c-0.05,1.16,0.28,2.17,0.94,3.1c0.14,0.19,0.26,0.39,0.4,0.59c1.82,2.61,4.06,4.82,6.53,6.8
			c2.95,2.35,6.22,4.17,9.78,5.43c1.56,0.55,3.14,1.07,4.79,1.28c1.4,0.19,2.82,0.32,4.23,0.45c2.21,0.21,4.42,0.05,6.6-0.27
			c3.85-0.55,7.52-1.69,11.01-3.45c3.73-1.89,7.07-4.28,9.99-7.27c3.59-3.68,6.03-8.06,7.8-12.84c0.81-2.18,1.41-4.43,1.95-6.69
			c0.81-3.39,1.22-6.83,1.3-10.3c0.1-4.4-0.93-8.6-2.61-12.65c-1.68-4.04-4-7.68-6.89-10.97c-1.83-2.08-3.86-3.94-6.11-5.55
			c-3.28-2.34-6.89-3.97-10.82-4.87c-2.44-0.56-4.92-0.69-7.41-0.5c-3.04,0.22-5.97,1.04-8.88,1.92c-1.85,0.55-3.67,1.2-5.59,1.48
			c-0.35,0.05-0.7,0.15-1.03,0.27c-1.78,0.63-3.55,1.31-5.22,2.21c-3.96,2.13-7.47,4.85-10.43,8.23c-1.33,1.51-1.22,1.34-1.11,3.41
			c0.01,0.13,0.13,0.25,0.21,0.41c0.46-0.23,0.68-0.63,0.97-0.94c0.94-1.01,1.82-2.08,2.81-3.03c4.59-4.43,9.96-7.56,16.03-9.5
			c1.2-0.38,2.42-0.7,3.63-1.07c3.12-0.94,6.31-1.36,9.56-1.41c5.49-0.09,10.52,1.41,15.1,4.37c3.11,2.01,5.74,4.55,8,7.48
			c4.22,5.48,6.97,11.59,7.72,18.53c0.35,3.19,0.35,6.37-0.04,9.55c-0.26,2.07-0.75,4.1-1.35,6.11c-1.68,5.68-4.62,10.64-8.73,14.84
			c-4.93,5.04-10.89,8.39-17.87,9.82c-4.06,0.83-8.13,0.93-12.22,0.27c-1.99-0.32-3.93-0.84-5.81-1.58
			c-2.88-1.13-5.53-2.67-7.98-4.56c-3.85-2.97-6.87-6.59-8.79-11.08C422.09,288.57,421.96,288.34,421.84,288.1z M418.46,221.09
			c0.36-0.32,0.21-0.69,0.22-1.03c0.04-1.78,0.15-1.63-1.05-2.97c-0.1-0.12-0.2-0.25-0.3-0.37c-2.02-2.35-4.29-4.41-7.04-5.87
			c-2.65-1.41-5.46-2.18-8.49-2.24c-3.28-0.06-6.43,0.6-9.53,1.56c-2.94,0.91-5.78,2.07-8.53,3.47c-4.97,2.53-9.4,5.78-13.2,9.86
			c-3.41,3.66-6.24,7.72-7.97,12.47c-1.23,3.39-2.09,6.85-2.24,10.47c-0.18,4.24,0.08,8.42,1.29,12.52c0.86,2.9,2.09,5.6,3.67,8.17
			c1.82,2.95,4.14,5.45,6.71,7.75c3.21,2.87,6.82,5.08,10.86,6.58c4.4,1.63,8.96,2.45,13.66,2.5c3.25,0.03,6.45-0.37,9.58-1.25
			c3.91-1.09,7.52-2.82,10.87-5.11c0.55-0.38,1.09-0.78,1.59-1.23c0.62-0.55,0.68-1.42,0.18-2.25c-0.17,0.1-0.35,0.17-0.5,0.29
			c-1.88,1.51-3.93,2.77-6.08,3.86c-3.62,1.84-7.43,3.04-11.47,3.52c-2.79,0.33-5.58,0.32-8.38,0c-3.47-0.4-6.79-1.38-10.02-2.7
			c-1.42-0.58-2.81-1.24-4.14-2.03c-3.95-2.35-7.28-5.39-9.94-9.14c-2-2.82-3.54-5.86-4.49-9.2c-0.54-1.9-0.96-3.83-1.19-5.78
			c-0.16-1.41-0.39-2.81-0.29-4.24c0.09-1.3,0.15-2.6,0.3-3.89c0.52-4.43,1.8-8.63,4-12.53c2.36-4.17,5.48-7.7,9.11-10.78
			c3.61-3.06,7.67-5.39,12.01-7.24c2.5-1.07,5.06-1.98,7.75-2.5c2.14-0.41,4.28-0.71,6.46-0.6c3.94,0.18,7.46,1.51,10.58,3.92
			c1.85,1.43,3.47,3.09,4.93,4.91C417.73,220.39,418.01,220.82,418.46,221.09z M418.71,229.01c0.07-0.31,0.12-0.45,0.12-0.6
			c0.01-0.55-0.02-1.1-0.01-1.66c0.02-0.69-0.18-1.3-0.56-1.89c-1.71-2.67-3.71-5.08-6.14-7.14c-3.57-3.03-7.71-4.37-12.35-4.19
			c-2.29,0.09-4.54,0.52-6.74,1.16c-4.62,1.34-8.89,3.44-12.87,6.11c-3.74,2.51-6.91,5.62-9.55,9.24c-2.19,3.01-3.85,6.31-4.91,9.91
			c-0.71,2.4-1.14,4.84-1.24,7.32c-0.11,2.84,0.05,5.67,0.67,8.46c0.42,1.89,0.92,3.76,1.71,5.52c1.72,3.87,4.14,7.24,7.28,10.09
			c4.51,4.1,9.73,6.79,15.74,7.92c2.96,0.56,5.94,0.7,8.95,0.54c2.21-0.12,4.39-0.47,6.52-1.06c2.91-0.79,5.63-2.03,8.22-3.57
			c1.7-1.01,3.3-2.16,4.76-3.49c0.23-0.21,0.51-0.45,0.57-0.72c0.14-0.6,0.15-1.22-0.13-1.91c-0.3,0.2-0.53,0.33-0.73,0.5
			c-0.86,0.69-1.7,1.41-2.59,2.07c-3.86,2.84-8.1,4.87-12.84,5.76c-1.7,0.32-3.41,0.6-5.15,0.63c-1.94,0.03-3.85-0.12-5.77-0.43
			c-3.93-0.63-7.65-1.85-11.09-3.88c-2.43-1.43-4.64-3.14-6.55-5.21c-3.52-3.83-5.81-8.29-6.88-13.4
			c-1.1-5.22-0.84-10.35,0.85-15.39c1.88-5.63,5.17-10.34,9.63-14.22c4.46-3.88,9.5-6.76,15.2-8.39c2.85-0.82,5.76-1.33,8.75-1.12
			c2.31,0.16,4.51,0.73,6.56,1.82c2.48,1.31,4.5,3.17,6.33,5.27c1.43,1.64,2.64,3.44,3.76,5.3
			C418.34,228.55,418.48,228.71,418.71,229.01z M358.08,245.93c-0.18,0.38-0.26,0.5-0.31,0.64c-0.43,1.47-0.84,2.95-1.28,4.43
			c-0.25,0.85-0.34,1.71-0.19,2.57c0.35,1.98,0.63,3.98,1.15,5.91c1.37,5.01,3.77,9.51,7.07,13.52c2.6,3.16,5.66,5.81,9.04,8.1
			c3.22,2.17,6.68,3.88,10.4,5.02c4.37,1.34,8.85,1.92,13.41,1.88c1.22-0.01,2.44-0.14,3.66-0.23c1.53-0.12,3.05-0.35,4.55-0.73
			c3.19-0.8,6.24-1.97,9.13-3.52c1.28-0.69,2.53-1.45,3.75-2.24c0.79-0.51,0.89-1.46,0.36-2.34c-0.04,0.01-0.08,0-0.12,0.02
			c-0.14,0.08-0.28,0.15-0.4,0.24c-2.85,2.01-5.92,3.61-9.19,4.82c-1.44,0.53-2.91,0.99-4.41,1.32c-3.64,0.79-7.33,0.96-11.05,0.69
			c-4.57-0.33-8.93-1.49-13.13-3.28c-3.96-1.69-7.43-4.12-10.64-6.96c-3.57-3.15-6.35-6.89-8.38-11.18
			c-2.01-4.26-3.03-8.78-3.26-13.47c-0.08-1.53,0-3.07,0-4.61C358.24,246.42,358.18,246.31,358.08,245.93z M419.09,283.5
			c-0.29,0.15-0.5,0.26-0.7,0.36c-1.35,0.74-2.68,1.51-4.05,2.2c-2.4,1.22-4.93,2.09-7.51,2.83c-2.05,0.59-4.13,1.05-6.27,1.14
			c-3.07,0.13-6.13,0.13-9.21-0.2c-4.93-0.53-9.58-1.92-13.98-4.14c-4.1-2.07-7.85-4.68-11.18-7.86c-3.78-3.61-6.83-7.73-8.86-12.57
			c-0.62-1.49-1.14-3.02-1.7-4.53c-0.08-0.2-0.09-0.5-0.54-0.36c-0.11,0.78-0.21,1.59-0.33,2.41c-0.12,0.77,0.03,1.47,0.32,2.18
			c2.06,5.12,5.1,9.59,8.99,13.49c3.94,3.95,8.48,7.04,13.49,9.47c1.92,0.93,3.89,1.72,5.96,2.26c2.94,0.77,5.9,1.44,8.92,1.74
			c1.53,0.15,3.06,0.27,4.6,0.27c3.73,0,7.36-0.66,10.95-1.68c3.59-1.02,6.96-2.52,10.18-4.39c1.23-0.71,1.2-0.6,1.1-2.16
			C419.25,283.87,419.18,283.76,419.09,283.5z M355.23,270.75c-0.19,0.73-0.08,1.2-0.04,1.65c0.09,0.95,0.33,1.84,0.9,2.65
			c2.63,3.73,5.64,7.09,9.21,9.94c5.23,4.18,11,7.35,17.46,9.2c3.69,1.05,7.44,1.8,11.27,1.96c3.59,0.15,7.17-0.01,10.71-0.72
			c4.23-0.86,8.31-2.15,12.15-4.17c0.7-0.37,1.4-0.73,2.08-1.12c0.19-0.11,0.43-0.3,0.47-0.49c0.11-0.52,0.13-1.06-0.11-1.54
			c-0.17,0-0.25-0.02-0.32,0.01c-0.18,0.08-0.35,0.17-0.52,0.27c-2.53,1.37-5.14,2.59-7.88,3.49c-1.42,0.46-2.87,0.86-4.32,1.23
			c-2.8,0.71-5.65,1.14-8.53,1.15c-2.24,0.01-4.49-0.14-6.72-0.37c-4.7-0.5-9.21-1.74-13.53-3.66c-2.78-1.24-5.39-2.78-7.9-4.49
			c-3.4-2.32-6.48-5.01-9.21-8.1c-1.62-1.83-3.03-3.83-4.4-5.86C355.8,271.5,355.59,271.23,355.23,270.75z M356.81,279.93
			c-0.06,0.21-0.12,0.29-0.1,0.35c0.26,0.95,0.51,1.9,0.82,2.83c0.09,0.28,0.32,0.55,0.54,0.76c0.99,0.96,1.98,1.92,3.02,2.83
			c3.46,3.01,7.23,5.58,11.32,7.69c3.94,2.03,8.08,3.55,12.38,4.59c3.96,0.96,8,1.31,12.07,1.39c1.02,0.02,2.06,0.02,3.07-0.1
			c2.74-0.31,5.45-0.76,8.13-1.47c3.6-0.95,7.05-2.25,10.37-3.93c0.28-0.14,0.57-0.28,0.83-0.46c0.15-0.11,0.33-0.27,0.37-0.43
			c0.13-0.53,0.16-1.07-0.17-1.62c-0.3,0.12-0.56,0.2-0.79,0.32c-2.26,1.22-4.6,2.24-7.02,3.1c-4.31,1.52-8.74,2.35-13.3,2.54
			c-2.29,0.1-4.57-0.05-6.84-0.25c-2.72-0.24-5.39-0.74-8.02-1.43c-4.88-1.29-9.42-3.37-13.72-5.97c-4.41-2.66-8.36-5.91-11.83-9.72
			C357.6,280.59,357.3,280.23,356.81,279.93z M360.09,288.98c-0.07,0.06-0.13,0.11-0.2,0.17c0.58,1.1,1.04,2.27,1.82,3.27
			c0.19,0.24,0.45,0.45,0.7,0.63c0.94,0.65,1.88,1.3,2.84,1.92c3.7,2.35,7.57,4.38,11.7,5.9c1.96,0.72,3.91,1.47,5.95,1.95
			c4.08,0.95,8.19,1.64,12.4,1.67c3.04,0.02,6.06-0.13,9.07-0.65c3.51-0.61,6.91-1.59,10.24-2.82c1.25-0.46,2.46-1.07,3.68-1.61
			c0.6-0.27,1.02-0.74,1.37-1.27c0.31-0.46,0.28-0.94-0.04-1.47c-0.34,0.15-0.62,0.27-0.9,0.4c-1.29,0.6-2.54,1.28-3.86,1.79
			c-2.61,1.01-5.28,1.85-8.01,2.5c-2.62,0.62-5.26,1.02-7.95,1.06c-1.65,0.02-3.31-0.01-4.96-0.03c-5.23-0.05-10.23-1.26-15.13-2.97
			c-1.93-0.67-3.82-1.49-5.67-2.36c-3.26-1.51-6.41-3.23-9.27-5.43c-0.69-0.53-1.41-1.01-2.12-1.51
			C361.2,289.72,360.64,289.35,360.09,288.98z M485.61,252.23c0.06-0.17,0.11-0.25,0.1-0.31c-0.44-1.96-0.83-3.93-1.6-5.8
			c-0.25-0.61-0.57-1.22-0.95-1.75c-2.6-3.67-5.8-6.74-9.48-9.3c-3.12-2.18-6.48-3.89-10.16-4.91c-1.14-0.31-2.3-0.51-3.45-0.77
			c-0.41-0.09-0.87-0.04-1.36-0.44c1.18-1.14,2.51-2.05,3.59-3.23c1.07-1.17,2.03-2.41,2.94-3.7c0.92-1.32,1.78-2.68,2.4-4.11
			c-0.61-0.97-0.68-1.03-1.32-1.36c-0.04,0.02-0.09,0.02-0.1,0.05c-0.31,0.5-0.63,0.99-0.92,1.5c-2.5,4.38-5.86,7.98-9.92,10.95
			c-0.73,0.53-1.5,1.02-2.25,1.52c-0.13,0.09-0.25,0.19-0.14,0.4c0.1,0.02,0.21,0.07,0.32,0.06c2.01-0.23,4.01-0.08,6,0.22
			c3.55,0.53,6.89,1.68,10.01,3.42c5.62,3.13,10.1,7.49,13.54,12.91c0.86,1.36,1.6,2.8,2.41,4.2
			C485.33,251.93,485.46,252.05,485.61,252.23z M418.64,214.37c0-0.8,0-1.47,0-2.13c0-0.34-0.14-0.61-0.37-0.84
			c-1.75-1.7-3.49-3.42-5.6-4.71c-3.39-2.07-7.04-3.08-11.03-2.95c-3.38,0.11-6.66,0.73-9.87,1.75c-4.03,1.29-7.87,3.02-11.5,5.21
			c-0.97,0.58-1.78,1.29-2.47,2.16c-0.82,1.01-1.64,2.02-2.45,3.04c-0.05,0.07-0.04,0.19-0.07,0.43c0.34-0.22,0.56-0.37,0.78-0.52
			c6.05-4.3,12.68-7.33,19.93-8.96c2.75-0.62,5.55-0.77,8.35-0.44c4.08,0.48,7.58,2.31,10.69,4.93c0.84,0.71,1.6,1.52,2.41,2.27
			C417.74,213.88,417.98,214.27,418.64,214.37z M421.2,234.11c0.46,0.01,0.84,0.02,1.23,0.02c2.25,0.01,4.49-0.22,6.71-0.57
			c1.36-0.21,2.73-0.42,4.07-0.72c3.21-0.7,6.27-1.85,9.23-3.26c5.44-2.58,10.26-6,14.25-10.55c1.88-2.15,3.49-4.47,4.79-7.01
			c0.12-0.24,0.18-0.5,0.27-0.76c-0.44-0.5-0.77-1.03-1.3-1.31c-0.12,0.04-0.17,0.05-0.19,0.07c-0.19,0.29-0.39,0.59-0.57,0.89
			c-1.32,2.3-2.81,4.47-4.55,6.47c-3.96,4.57-8.72,8.07-14.25,10.51c-1.98,0.87-3.99,1.71-6.08,2.29
			c-3.89,1.07-7.85,1.71-11.89,1.84c-0.39,0.01-0.79,0.02-1.18,0.06c-0.22,0.02-0.43,0.12-0.64,0.19
			C421,232.9,420.98,233.44,421.2,234.11z M365.2,297.46c-0.06,0.06-0.12,0.12-0.18,0.18c0.15,0.22,0.28,0.46,0.45,0.66
			c0.66,0.79,1.33,1.56,1.98,2.35c0.46,0.56,1.01,0.99,1.66,1.3c3.21,1.51,6.47,2.9,9.85,4.01c2.32,0.77,4.71,1.28,7.11,1.76
			c3.07,0.61,6.17,0.87,9.28,0.98c2.16,0.08,4.33-0.02,6.49-0.27c3.22-0.38,6.38-1,9.5-1.88c2.56-0.72,3.24-1.17,4.97-3.17
			c0.1-0.12,0.2-0.24,0.28-0.38c0.03-0.05,0-0.14,0-0.25c-0.42-0.15-0.76,0.13-1.1,0.28c-2.81,1.18-5.75,1.93-8.72,2.55
			c-1.81,0.38-3.66,0.58-5.49,0.85c-2,0.3-4.01,0.29-6.02,0.23c-1.77-0.05-3.53-0.28-5.3-0.45c-3.5-0.35-6.92-1.12-10.27-2.2
			c-4.25-1.36-8.32-3.16-12.26-5.27c-0.38-0.2-0.77-0.4-1.15-0.61C365.92,297.92,365.56,297.69,365.2,297.46z M421.21,229.75
			c0.45,0.02,0.84,0.04,1.23,0.05c2.42,0.03,4.79-0.35,7.15-0.79c1.47-0.27,2.94-0.55,4.39-0.94c3.06-0.82,5.94-2.11,8.72-3.59
			c1.6-0.85,3.18-1.74,4.62-2.84c2.99-2.28,5.66-4.89,7.93-7.9c1.31-1.73,2.42-3.58,3.35-5.57c-0.46-0.6-0.92-1.15-1.67-1.47
			c-0.15,0.26-0.27,0.46-0.38,0.66c-2.29,4.34-5.39,8.03-9.1,11.22c-3.73,3.21-8.06,5.36-12.67,6.94c-3.29,1.13-6.7,1.76-10.17,2
			c-0.86,0.06-1.73,0.06-2.6,0.09c-0.31,0.01-0.64-0.01-0.91,0.29C420.99,228.45,420.98,229.02,421.21,229.75z M463.36,213.14
			c-0.28,0.44-0.51,0.75-0.7,1.09c-1.96,3.45-4.36,6.55-7.26,9.27c-3.22,3.02-6.8,5.5-10.74,7.46c-1.58,0.79-3.25,1.42-4.85,2.17
			c-2.57,1.19-5.27,1.87-8.05,2.26c-1.43,0.2-2.78,0.51-3.92,1.45c-0.09,0.07-0.2,0.13-0.3,0.19c-2.09,1.42-4.12,2.91-5.89,4.73
			c-0.83,0.85-0.96,1.75-0.46,3.05c0.22-0.18,0.44-0.33,0.63-0.51c1.32-1.24,2.64-2.49,4.09-3.58c1.8-1.35,3.74-2.49,5.66-3.64
			c1.78-1.07,3.7-1.72,5.74-2.09c1.63-0.29,3.23-0.7,4.84-1.12c1.64-0.42,3.24-0.99,4.72-1.86c1.46-0.86,2.91-1.74,4.35-2.63
			c2.53-1.56,4.83-3.42,6.92-5.52c2.46-2.46,4.51-5.26,6.19-8.32c0.17-0.31,0.3-0.63,0.46-0.94
			C464.45,213.98,463.99,213.57,463.36,213.14z M421.07,225.19c0.31,0.04,0.54,0.09,0.77,0.08c1.49-0.08,2.99-0.11,4.48-0.27
			c2.75-0.3,5.44-0.88,8.06-1.76c3.84-1.29,7.4-3.13,10.62-5.58c4.31-3.27,7.55-7.44,10.11-12.17c0.09-0.16,0.12-0.36,0.18-0.56
			c-0.48-0.55-0.91-1.1-1.56-1.37c-0.11,0.08-0.2,0.11-0.24,0.17c-0.13,0.2-0.25,0.4-0.36,0.61c-1.18,2.14-2.51,4.19-4.09,6.06
			c-2.62,3.13-5.56,5.87-9.17,7.89c-4.07,2.27-8.38,3.82-13,4.44c-1.52,0.21-3.06,0.26-4.59,0.38c-0.42,0.03-0.87-0.06-1.28,0.26
			C420.86,223.94,420.87,224.51,421.07,225.19z M421.07,220.66c0.18,0.08,0.25,0.13,0.33,0.14c0.16,0.02,0.31,0.04,0.47,0.03
			c2.45-0.02,4.87-0.31,7.27-0.84c2.75-0.61,5.36-1.58,7.89-2.8c1.74-0.84,3.4-1.82,4.95-2.99c3.91-2.95,6.9-6.66,9.24-10.93
			c0.26-0.48,0.47-0.98,0.69-1.44c-0.11-0.18-0.16-0.3-0.24-0.37c-0.32-0.29-0.65-0.57-1-0.83c-0.14-0.1-0.33-0.14-0.53-0.21
			c-0.13,0.23-0.23,0.39-0.32,0.56c-1.44,2.68-3.17,5.16-5.18,7.46c-3.18,3.65-7.11,6.17-11.57,7.96c-1.84,0.74-3.77,1.12-5.69,1.57
			c-1.73,0.41-3.51,0.51-5.28,0.62c-0.34,0.02-0.68,0.08-1.03,0.12C420.8,219.41,421.01,220.01,421.07,220.66z M418.45,208.13
			c0.21-0.52,0.12-1.08,0.17-1.62c0.06-0.69-0.19-1.23-0.72-1.66c-0.8-0.64-1.56-1.33-2.39-1.93c-4.29-3.11-9.12-4.41-14.37-4.06
			c-3.63,0.24-7.18,0.98-10.59,2.3c-0.88,0.34-1.83,0.58-2.6,1.09c-0.77,0.51-1.36,1.3-2.01,1.99c-0.35,0.36-0.74,0.69-1.01,1.14
			c0.37,0.28,0.64,0.02,0.9-0.09c2.78-1.11,5.59-2.14,8.5-2.88c3.35-0.85,6.72-1.26,10.18-0.94c2.71,0.25,5.24,1.04,7.66,2.26
			c1.98,1.01,3.75,2.31,5.38,3.82C417.81,207.79,417.99,208.13,418.45,208.13z M446.81,197.26c-0.08,0.05-0.13,0.06-0.15,0.08
			c-0.09,0.12-0.19,0.25-0.26,0.38c-1.17,2.25-2.56,4.33-4.17,6.29c-3.52,4.28-7.98,7.08-13.23,8.72c-2.31,0.72-4.67,1.12-7.08,1.28
			c-0.3,0.02-0.6,0.09-0.93,0.14c-0.12,0.76-0.15,1.44,0.1,2.19c0.51-0.01,0.97,0.02,1.44-0.03c0.98-0.09,1.96-0.21,2.94-0.33
			c5.07-0.67,9.66-2.58,13.76-5.62c3.6-2.67,6.36-6.1,8.47-10.04c0.22-0.42,0.43-0.84,0.63-1.27c0.1-0.22,0.13-0.5-0.07-0.66
			C447.76,198.01,447.4,197.46,446.81,197.26z M422.05,296.81c-0.24,0.46-0.11,0.8,0.09,1.16c0.26,0.48,0.48,0.99,0.73,1.48
			c0.2,0.38,0.38,0.79,0.65,1.11c0.71,0.85,1.42,1.7,2.2,2.47c3.78,3.72,8.29,6.25,13.3,7.88c2.78,0.9,5.64,1.45,8.58,1.55
			c2.14,0.07,4.26,0,6.36-0.37c4.53-0.79,8.66-2.59,12.54-5.01c0.06-0.04,0.08-0.16,0.18-0.38c-0.5,0.22-0.85,0.37-1.2,0.53
			c-2.36,1.12-4.84,1.9-7.37,2.51c-3.83,0.92-7.73,1.08-11.63,0.7c-3.79-0.37-7.43-1.4-10.89-3.01c-4.93-2.31-9.1-5.62-12.6-9.78
			C422.76,297.36,422.57,296.99,422.05,296.81z M420.95,211.78c3.01-0.15,5.87-0.61,8.61-1.64c3.54-1.33,6.75-3.21,9.42-5.93
			c2.47-2.53,4.51-5.34,5.94-8.59c-0.46-0.67-0.98-1.16-1.67-1.57c-0.16,0.25-0.3,0.43-0.4,0.63c-0.92,1.74-2,3.39-3.19,4.96
			c-1.78,2.34-3.88,4.35-6.42,5.86c-3.58,2.12-7.4,3.48-11.57,3.79c-0.26,0.02-0.52,0.11-0.79,0.16
			C420.73,210.22,420.74,210.91,420.95,211.78z M392.38,197.98c0.35-0.01,0.58,0.02,0.8-0.02c0.89-0.19,1.77-0.4,2.65-0.59
			c2.94-0.62,5.9-0.95,8.92-0.72c2.66,0.2,5.21,0.8,7.64,1.89c1.88,0.84,3.63,1.89,5.24,3.17c0.23,0.18,0.43,0.48,0.78,0.41
			c0.05-0.04,0.1-0.06,0.1-0.09c-0.01-0.82-0.02-1.64-0.03-2.46c-0.47-0.41-0.94-0.82-1.42-1.23c-0.06-0.05-0.12-0.1-0.19-0.14
			c-3.1-2.32-6.59-3.67-10.43-4.09c-2.91-0.31-5.82-0.13-8.71,0.36c-0.62,0.1-1.24,0.24-1.85,0.37c-0.43,0.09-0.81,0.29-1.13,0.61
			c-0.67,0.66-1.36,1.31-2.03,1.98C392.6,197.55,392.53,197.73,392.38,197.98z M420.82,206.91c1.14,0.19,2.14-0.05,3.13-0.24
			c3.29-0.62,6.32-1.9,9.08-3.79c2.81-1.92,4.95-4.47,6.77-7.31c1.14-1.78,1.42-2.37,1.57-3.29c-0.46-0.49-0.91-1.03-1.61-1.38
			c-0.15,0.26-0.27,0.45-0.37,0.65c-1.78,3.33-3.97,6.33-7.05,8.59c-2.21,1.62-4.57,2.92-7.23,3.64c-1.1,0.3-2.21,0.56-3.36,0.63
			c-0.35,0.02-0.72,0.02-0.99,0.44c-0.01,0.28-0.03,0.63-0.02,0.98C420.74,206.15,420.78,206.46,420.82,206.91z M374.29,306.79
			c0,0.04-0.02,0.09,0,0.11c0.13,0.14,0.24,0.3,0.4,0.42c1.9,1.43,3.96,2.57,6.13,3.52c0.32,0.14,0.67,0.23,1.02,0.3
			c1.66,0.34,3.31,0.69,4.98,0.98c3.89,0.67,7.82,0.85,11.77,0.77c2.74-0.05,5.29-0.73,7.72-1.92c0.56-0.28,1.1-0.61,1.64-0.94
			c0.11-0.07,0.17-0.23,0.34-0.45c-0.37,0.03-0.6,0.03-0.81,0.07c-0.93,0.19-1.84,0.44-2.77,0.58c-3.44,0.53-6.9,0.6-10.37,0.52
			c-2.56-0.06-5.1-0.36-7.63-0.79c-4.01-0.68-7.92-1.73-11.74-3.11C374.74,306.78,374.53,306.63,374.29,306.79z M436.56,187.8
			c-0.16,0.17-0.3,0.26-0.36,0.39c-0.61,1.24-1.4,2.37-2.23,3.48c-3.08,4.1-7.05,6.8-12.14,7.77c-0.38,0.07-0.79,0.09-1.06,0.4
			c-0.16,1.25-0.14,1.47,0.2,2.2c0.45-0.01,0.93,0.04,1.38-0.05c0.96-0.19,1.92-0.42,2.86-0.71c2.67-0.83,5.06-2.18,7.12-4.07
			c2.02-1.85,3.75-3.93,4.99-6.4c0.24-0.49,0.64-0.9,0.75-1.49c-0.18-0.21-0.35-0.43-0.54-0.62
			C437.23,188.4,436.91,188.12,436.56,187.8z M398.21,191.93c0.77,0.08,1.22,0.01,1.69-0.03c0.67-0.06,1.33-0.13,2-0.16
			c1.77-0.09,3.54,0.06,5.3,0.23c2.18,0.2,4.25,0.78,6.26,1.62c1.27,0.53,2.48,1.19,3.63,1.96c0.38,0.26,0.72,0.61,1.26,0.65
			c0.27-0.53,0.14-1.09,0.2-1.62c0.07-0.62-0.2-1.03-0.69-1.39c-1.97-1.5-4.18-2.49-6.54-3.18c-3.19-0.93-6.45-0.93-9.72-0.71
			c-0.41,0.03-0.78,0.14-1.08,0.42C399.81,190.38,399.11,191.06,398.21,191.93z M469.13,219.86c-0.14,0.19-0.26,0.34-0.36,0.5
			c-0.6,0.92-1.18,1.86-1.79,2.78c-0.97,1.44-2.1,2.75-3.27,4.03c-0.2,0.22-0.52,0.39-0.38,0.84c0.34,0.11,0.71,0.24,1.08,0.35
			c2.93,0.85,5.68,2.09,8.28,3.67c2.77,1.68,5.34,3.62,7.65,5.9c0.14,0.14,0.25,0.42,0.54,0.26c-0.01-0.1,0.01-0.18-0.02-0.25
			c-0.6-1.2-1.21-2.39-1.8-3.59c-0.2-0.4-0.52-0.68-0.87-0.94c-3.46-2.57-7.11-4.79-11.21-6.21c-0.2-0.07-0.48-0.08-0.54-0.44
			c1.55-1.62,2.96-3.39,3.88-5.48C470,220.7,469.73,220.19,469.13,219.86z M433.09,184.54c-0.22,0.31-0.33,0.46-0.43,0.62
			c-0.42,0.66-0.82,1.35-1.27,1.99c-2.11,3.07-4.89,5.32-8.37,6.68c-0.62,0.24-1.27,0.44-1.9,0.63c-0.35,0.11-0.55,0.31-0.55,0.67
			c0,0.51,0,1.03,0.03,1.54c0.03,0.53,0.25,0.69,0.78,0.57c1.31-0.29,2.6-0.66,3.82-1.23c3.92-1.85,6.82-4.76,8.9-8.53
			c0.25-0.44,0.51-0.89,0.49-1.54C434.15,185.55,433.68,185.09,433.09,184.54z M418.29,190.51c0.17-0.69,0.22-1.99,0.07-2.37
			c-0.07-0.18-0.18-0.36-0.32-0.48c-0.23-0.21-0.5-0.38-0.77-0.55c-1.52-0.93-3.14-1.63-4.85-2.11c-1.75-0.49-3.54-0.71-5.34-0.91
			c-0.54-0.06-0.99,0.07-1.38,0.48c-0.54,0.57-1.12,1.1-1.66,1.67c-0.12,0.12-0.15,0.32-0.27,0.57c1.36,0.09,2.61,0.11,3.85,0.26
			c1.25,0.15,2.5,0.33,3.71,0.64c1.21,0.31,2.39,0.78,3.57,1.19C416.1,189.32,417.11,190.1,418.29,190.51z M429.59,181.3
			c-0.46,0.69-0.87,1.31-1.27,1.93c-1.34,2.03-2.99,3.75-5.14,4.94c-0.65,0.36-1.32,0.7-2.01,0.97c-0.53,0.21-0.74,0.53-0.7,1.07
			c0.03,0.43,0,0.87,0.05,1.3c0.02,0.21,0.16,0.41,0.23,0.59c4.07-0.64,8.98-5.1,10.59-9.28c-0.43-0.43-0.87-0.87-1.32-1.31
			C429.93,181.44,429.81,181.41,429.59,181.3z M426.42,177.75c-0.43,0.32-0.59,0.77-0.84,1.16c-1.22,1.86-2.54,3.61-4.72,4.43
			c-0.23,0.09-0.43,0.25-0.43,0.51c-0.02,0.93-0.12,1.87,0.17,2.84c0.27-0.03,0.5-0.03,0.72-0.1c0.99-0.31,1.87-0.84,2.62-1.54
			c0.95-0.88,1.84-1.83,2.58-2.9c0.57-0.84,1.13-1.69,1.52-2.66C427.54,178.84,427.1,178.2,426.42,177.75z M408.4,181.82
			c0.02,0.03,0.03,0.09,0.06,0.09c0.23,0.05,0.46,0.1,0.69,0.13c2.27,0.32,4.51,0.76,6.62,1.71c0.61,0.28,1.2,0.6,1.81,0.87
			c0.2,0.09,0.43,0.1,0.66,0.15c0.19-0.61,0.04-1.17,0.09-1.71c0.06-0.73-0.3-1.17-0.92-1.49c-1.4-0.73-2.86-1.33-4.39-1.73
			c-0.69-0.18-1.38-0.32-2.08-0.47c-0.28-0.06-0.58-0.06-0.77,0.17c-0.61,0.71-1.2,1.44-1.8,2.17
			C408.36,181.73,408.39,181.78,408.4,181.82z M423.47,173.74c-0.21,0.16-0.32,0.21-0.39,0.3c-0.64,0.92-1.39,1.71-2.42,2.21
			c-0.33,0.16-0.39,0.46-0.38,0.8c0.03,1.1,0.05,2.21,0.08,3.31c0,0.15,0.06,0.3,0.11,0.5c0.22-0.03,0.42-0.02,0.59-0.09
			c0.64-0.26,1.14-0.71,1.52-1.27c0.72-1.03,1.42-2.08,2.12-3.13c0.11-0.16,0.15-0.35,0.23-0.54
			C424.55,175.07,424.05,174.43,423.47,173.74z M418.16,179.28c0.08-0.93,0.04-1.67,0-2.4c-0.02-0.35-0.23-0.58-0.52-0.73
			c-1.12-0.58-2.28-1.04-3.49-1.39c-0.29-0.08-0.55-0.01-0.72,0.25c-0.36,0.56-0.73,1.11-1.07,1.68c-0.08,0.14-0.07,0.34-0.1,0.54
			c1.01,0.31,1.95,0.57,2.87,0.89C416.09,178.45,417.02,178.84,418.16,179.28z M469.65,226.15c0.4,0.2,0.67,0.34,0.95,0.47
			c0.93,0.43,1.86,0.84,2.78,1.3c0.6,0.3,1.16,0.67,1.74,0.99c0.12,0.07,0.27,0.07,0.56,0.14c-0.16-0.34-0.23-0.55-0.35-0.74
			c-0.42-0.67-0.78-1.38-1.3-1.97c-0.37-0.42-0.96-0.66-1.48-1c0.06-0.28,0.13-0.57,0.19-0.86c-0.38-0.44-0.54-0.99-1.09-1.3
			C471,224.16,470.36,225.09,469.65,226.15z M418,173.66c0.17-0.94,0.08-1.76,0.03-2.58c-0.01-0.17-0.12-0.41-0.26-0.49
			c-0.49-0.3-0.98-0.65-1.65-0.6c-0.41,0.83-1,1.57-1.15,2.57C415.97,172.93,416.87,173.4,418,173.66z M420.35,173.99
			c0.19-0.03,0.33-0.01,0.41-0.07c0.58-0.42,1.04-0.95,1.41-1.56c0.18-0.3,0.19-0.57,0.03-0.89c-0.56-1.08-1.11-2.17-1.67-3.25
			c-0.06-0.11-0.21-0.17-0.35-0.28C420.04,169.13,420.15,173.02,420.35,173.99z M421.06,236.38c-0.18,1.42-0.14,2.02,0.16,2.66
			c0.07-0.01,0.17,0.01,0.22-0.03c1.02-0.81,2.03-1.62,3.03-2.43c0.12-0.09,0.24-0.22,0.11-0.4
			C423.1,236.05,421.98,236.11,421.06,236.38z M417.82,164.44c-0.53,1.05-0.77,2.15-1.02,3.25c-0.03,0.14-0.01,0.35,0.08,0.44
			c0.27,0.29,0.61,0.48,1.11,0.27C418.03,167.08,418,165.76,417.82,164.44z"/>
		<g>
			<path d="M340.94,447.51v-9.19h4.12c1.06,0,1.87,0.21,2.44,0.64c0.57,0.42,0.85,1,0.85,1.74c0,0.5-0.11,0.92-0.33,1.26
				c-0.22,0.34-0.52,0.6-0.9,0.79c-0.38,0.18-0.78,0.28-1.22,0.28l0.24-0.39c0.53,0,0.99,0.09,1.39,0.28s0.72,0.45,0.96,0.81
				s0.35,0.79,0.35,1.32c0,0.79-0.3,1.4-0.89,1.83c-0.59,0.43-1.47,0.65-2.63,0.65H340.94z M342.25,446.45h3.02
				c0.73,0,1.28-0.12,1.67-0.37s0.58-0.63,0.58-1.16c0-0.53-0.19-0.92-0.58-1.17s-0.94-0.37-1.67-0.37h-3.14v-1.06h2.81
				c0.67,0,1.18-0.12,1.55-0.37c0.37-0.25,0.55-0.61,0.55-1.1s-0.18-0.86-0.55-1.1c-0.37-0.25-0.88-0.37-1.55-0.37h-2.69V446.45z"/>
			<path d="M354.56,447.51v-9.19h3.59c0.81,0,1.49,0.13,2.06,0.38c0.57,0.25,1.01,0.62,1.31,1.1c0.31,0.48,0.46,1.05,0.46,1.72
				c0,0.67-0.15,1.24-0.46,1.71c-0.31,0.48-0.74,0.84-1.31,1.1c-0.57,0.25-1.26,0.38-2.06,0.38h-2.86l0.59-0.6v3.4H354.56z
				 M355.88,444.24l-0.59-0.64h2.82c0.84,0,1.48-0.18,1.91-0.54c0.43-0.36,0.65-0.87,0.65-1.53c0-0.66-0.22-1.17-0.65-1.52
				c-0.43-0.36-1.07-0.54-1.91-0.54h-2.82l0.59-0.66V444.24z M360.71,447.51l-2.34-3.34h1.41l2.36,3.34H360.71z"/>
			<path d="M369.1,446.37h5.36v1.14h-6.67v-9.19h6.49v1.14h-5.17V446.37z M368.98,442.28h4.73v1.12h-4.73V442.28z"/>
			<path d="M378.87,447.51l4.16-9.19h1.3l4.18,9.19h-1.38l-3.72-8.46h0.53l-3.72,8.46H378.87z M380.65,445.21l0.35-1.05h5.18
				l0.38,1.05H380.65z"/>
			<path d="M394.93,447.51v-8.05h-3.15v-1.14h7.6v1.14h-3.15v8.05H394.93z"/>
			<path d="M405.8,447.51h-1.31v-9.19h1.31V447.51z M411.2,443.41h-5.53v-1.14h5.53V443.41z M411.08,438.32h1.31v9.19h-1.31V438.32z
				"/>
			<path d="M430.19,447.62c-0.7,0-1.35-0.12-1.95-0.36c-0.6-0.24-1.12-0.57-1.56-0.99c-0.44-0.42-0.78-0.92-1.02-1.49
				c-0.25-0.57-0.37-1.19-0.37-1.87c0-0.67,0.12-1.29,0.37-1.86s0.59-1.07,1.02-1.49c0.44-0.42,0.96-0.75,1.55-0.99
				c0.6-0.24,1.25-0.35,1.96-0.35c0.7,0,1.35,0.12,1.94,0.35c0.6,0.23,1.11,0.56,1.55,0.98c0.44,0.43,0.78,0.92,1.02,1.5
				c0.24,0.57,0.36,1.2,0.36,1.87c0,0.68-0.12,1.31-0.36,1.88c-0.24,0.57-0.58,1.07-1.02,1.49c-0.44,0.42-0.95,0.75-1.55,0.99
				C431.54,447.5,430.89,447.62,430.19,447.62z M430.19,446.45c0.51,0,0.98-0.09,1.41-0.26c0.43-0.18,0.81-0.42,1.13-0.74
				c0.32-0.32,0.57-0.69,0.75-1.12c0.18-0.43,0.27-0.9,0.27-1.41c0-0.51-0.09-0.97-0.27-1.4c-0.18-0.42-0.43-0.8-0.75-1.12
				s-0.7-0.57-1.13-0.75c-0.43-0.17-0.9-0.26-1.41-0.26c-0.52,0-0.99,0.09-1.43,0.26c-0.43,0.18-0.81,0.42-1.14,0.75
				c-0.32,0.32-0.58,0.7-0.76,1.12s-0.27,0.89-0.27,1.4c0,0.51,0.09,0.98,0.27,1.41c0.18,0.43,0.43,0.8,0.76,1.12
				c0.32,0.32,0.7,0.57,1.14,0.74C429.2,446.36,429.67,446.45,430.19,446.45z"/>
			<path d="M442.07,447.51h-1.31v-9.19h6.49v1.14h-5.18V447.51z M441.94,442.67h4.74v1.13h-4.74V442.67z"/>
			<path d="M459.98,447.51v-9.19h1.31v8.05h4.98v1.14H459.98z"/>
			<path d="M471.46,447.51v-9.19h1.31v9.19H471.46z"/>
			<path d="M480.52,447.51h-1.31v-9.19h6.49v1.14h-5.18V447.51z M480.39,442.67h4.74v1.13h-4.74V442.67z"/>
			<path d="M492.54,446.37h5.36v1.14h-6.67v-9.19h6.49v1.14h-5.18V446.37z M492.42,442.28h4.73v1.12h-4.73V442.28z"/>
		</g>
	</g>
</g>
<g id="Layer_2">
</g>
</svg>
