<svg width="385" height="300" viewBox="0 0 385 300" fill="none" xmlns="http://www.w3.org/2000/svg">
<path d="M128.459 223.993C126.939 227.583 125.239 230.983 123.169 234.213C122.359 235.323 121.549 236.243 120.359 236.993C119.179 237.833 117.899 238.023 116.519 237.583C113.209 236.703 111.269 234.433 110.399 231.153C110.209 230.243 110.009 229.323 109.999 228.413C109.869 224.843 109.919 221.273 110.609 217.693C110.779 216.773 111.049 215.853 111.309 215.033C111.489 214.213 111.759 213.933 112.579 213.923C114.039 213.813 115.239 214.173 116.439 214.883C117.079 215.333 117.459 215.973 117.289 216.883L116.679 220.003C115.719 224.133 115.399 228.253 115.999 232.453C116.099 233.463 116.389 234.463 116.949 235.373C117.139 235.743 117.319 235.823 117.689 235.643C118.419 235.363 119.049 234.893 119.599 234.433C121.949 232.213 123.669 229.723 125.189 226.953C127.069 223.543 128.589 219.963 130.099 216.373C130.369 215.633 130.719 214.993 131.079 214.253C131.349 213.613 131.799 213.333 132.439 213.323C133.909 213.303 135.189 213.843 136.209 214.743C136.669 215.193 136.769 215.653 136.589 216.293C136.149 218.133 135.899 219.963 135.649 221.793C135.399 223.903 135.239 226.003 135.169 228.203C135.109 230.763 135.229 233.423 135.259 235.983C135.379 238.363 135.859 240.553 136.619 242.833C137.089 243.923 137.649 245.013 138.489 245.923C140.899 248.913 143.749 249.523 147.209 247.933C149.209 246.993 150.939 245.603 152.379 244.033C155.359 240.793 158.159 237.473 160.319 233.603C162.209 230.563 163.729 227.253 165.159 223.933L166.409 221.353C166.589 221.073 166.679 220.803 167.039 220.883C167.319 221.063 167.409 221.333 167.319 221.613C167.149 222.533 166.879 223.453 166.529 224.273C164.839 228.323 162.779 232.283 160.349 235.963C158.009 239.743 155.309 243.163 152.139 246.213C150.239 248.153 147.969 249.643 145.039 250.043C143.939 250.243 142.749 250.073 141.649 249.713C137.609 248.473 134.739 245.943 132.959 242.033C131.929 240.033 131.629 237.843 131.329 235.643C130.639 231.343 130.499 226.953 130.629 222.653C130.709 221.373 130.599 220.093 130.579 218.623L128.459 223.993Z" fill="#290F39"/>
<path d="M165.779 232.853C166.749 229.643 167.999 226.513 169.609 223.473C170.689 221.633 171.949 219.963 173.579 218.483C175.659 216.533 178.959 217.143 180.629 218.953C181.279 219.683 181.559 220.593 181.669 221.503C181.879 223.513 181.719 225.533 181.459 227.543C180.949 231.393 180.449 235.333 180.309 239.183C180.249 242.383 180.289 245.593 181.239 248.693C181.529 249.693 181.809 250.703 182.549 251.513C183.109 252.233 183.839 252.503 184.759 252.403C186.399 252.113 187.769 251.363 188.949 250.343C190.669 248.953 191.939 247.283 193.009 245.443C195.709 241.203 197.849 236.693 199.539 232.003C200.509 229.063 201.489 226.123 202.549 223.183C202.639 222.813 202.719 222.453 202.909 222.173C203.089 221.993 203.359 221.893 203.639 221.983C203.919 222.073 204.009 222.253 203.919 222.533C203.829 222.993 203.839 223.363 203.659 223.823C202.769 226.483 201.889 229.333 200.909 232.003C198.779 237.703 196.279 243.223 192.859 248.203C192.139 249.213 191.419 250.143 190.599 251.063C186.709 255.133 179.659 254.663 176.489 249.573C175.459 247.753 174.889 245.833 174.689 243.823C174.279 239.803 174.789 235.953 175.559 232.093C176.169 228.883 176.949 225.853 177.559 222.733C177.729 221.723 177.899 220.623 177.799 219.623C177.789 218.703 177.329 218.343 176.409 218.633C175.769 218.823 175.129 219.103 174.589 219.573C172.499 221.243 170.969 223.363 169.719 225.763C167.749 229.633 166.609 233.853 166.199 238.253C166.109 238.343 166.109 238.533 166.109 238.623C165.939 239.353 165.939 240.093 164.939 240.283C163.839 240.483 162.739 240.213 162.279 239.303C161.439 238.033 160.969 236.573 160.579 235.113C159.319 229.083 159.159 223.043 159.459 216.913C159.849 210.413 160.689 203.993 162.539 197.653C163.769 193.243 165.549 189.013 168.069 185.143C169.419 183.113 170.949 181.173 172.859 179.683C174.039 178.753 175.309 178.103 176.679 177.713C179.779 176.853 184.559 178.543 186.069 182.463C186.919 184.833 187.219 187.123 186.969 189.593C186.299 195.273 184.349 200.603 181.749 205.673C179.869 209.353 177.709 212.763 174.909 215.823C172.379 218.783 169.289 221.103 165.929 222.883C165.469 223.073 165.289 223.253 165.299 223.803C165.239 227.003 165.279 230.303 165.409 233.593C165.689 233.403 165.689 233.133 165.779 232.853ZM165.929 221.873C169.559 219.633 172.739 216.853 175.259 213.343C179.849 206.793 182.889 199.623 184.349 191.733C184.779 189.533 185.119 187.333 184.729 185.143C184.439 183.403 183.869 181.853 182.659 180.493C181.549 179.223 180.449 179.053 178.899 179.803C177.809 180.363 176.899 181.113 175.999 182.123C173.469 184.983 171.679 188.303 170.249 191.793C167.669 198.043 166.739 204.743 166.079 211.423C165.829 213.993 165.589 216.553 165.529 219.123C165.449 220.043 165.369 221.043 165.469 221.963C165.659 222.053 165.839 221.963 165.929 221.873Z" fill="#290F39"/>
<path d="M217.339 207.973C217.279 210.723 216.289 212.653 214.569 214.043C214.119 214.413 213.659 214.783 213.019 214.703C212.379 214.713 212.189 214.443 212.459 213.793C212.729 213.333 212.909 212.783 212.989 212.143C213.079 211.683 212.979 211.323 212.429 211.143C210.779 210.453 210.069 209.193 210.299 207.713C210.459 206.693 211.129 205.783 212.079 205.373C212.229 205.303 212.369 205.263 212.489 205.243C213.769 205.043 214.559 204.863 215.979 205.623C217.069 206.203 217.239 207.343 217.339 207.973Z" fill="#290F39"/>
<path d="M248.559 233.163L257.299 228.943C260.579 227.353 263.579 225.393 266.389 223.073C267.199 222.423 267.739 221.503 268.559 220.853C268.739 220.673 268.919 220.393 269.189 220.203C269.459 220.013 269.739 220.013 269.919 220.283C270.199 220.463 270.019 220.643 269.929 220.923C269.389 221.843 268.759 222.863 267.949 223.693C266.589 225.083 265.049 226.193 263.409 227.403C260.959 229.173 258.229 230.573 255.499 231.883C252.949 233.193 250.399 234.413 247.859 235.813C247.409 236.003 247.229 236.283 247.229 236.823C247.659 242.403 247.989 247.893 247.689 253.473C247.449 256.863 247.129 260.253 246.429 263.553C245.819 266.493 244.849 269.333 243.599 272.093C242.529 274.393 241.179 276.513 239.459 278.363C237.289 280.583 234.559 281.803 231.539 282.293C228.979 282.683 226.509 282.353 224.119 281.463C219.709 279.773 217.109 276.603 216.229 272.033C215.449 268.193 216.049 264.533 217.569 260.853C219.349 256.533 222.149 252.743 225.309 249.323C229.919 244.423 235.089 240.333 241.009 237.153H241.099C242.189 236.503 242.189 236.503 242.089 235.313L241.159 226.173L240.649 221.603C240.649 221.423 240.649 221.323 240.549 221.143C240.279 221.233 240.279 221.513 240.189 221.693C238.859 225.463 236.879 228.963 234.729 232.373C233.919 233.663 232.839 234.863 231.749 235.883C230.569 236.993 229.289 237.103 227.819 236.473C225.799 235.583 224.589 233.943 224.019 231.943C223.449 230.213 223.249 228.473 223.229 226.643C223.189 223.163 223.429 219.773 224.209 216.383C224.379 215.463 224.649 214.543 225.099 213.723C225.729 212.343 226.639 212.063 228.019 212.593L228.759 213.043C230.139 213.853 230.429 214.583 229.799 216.053C228.729 218.623 228.209 221.383 227.879 224.223C227.629 226.513 227.659 228.803 227.769 231.093C227.779 232.103 227.979 233.103 228.349 234.013C228.729 235.013 228.819 235.103 229.639 234.553C230.549 234.083 231.269 233.433 231.909 232.693C233.989 230.103 235.599 227.253 237.219 224.393C238.379 222.183 239.179 219.793 240.069 217.403C240.329 216.573 240.229 215.753 240.409 214.833C240.499 214.283 240.579 213.733 240.849 213.183C241.119 212.633 241.479 212.443 242.129 212.523C242.769 212.603 243.409 212.873 243.969 213.233C244.799 213.773 245.079 214.413 244.909 215.423C244.649 216.803 244.849 218.263 245.049 219.633C245.449 222.463 245.839 225.303 246.339 228.133C246.629 229.873 246.839 231.603 246.949 233.343C246.949 233.523 247.049 233.703 247.049 233.893C247.649 233.723 248.099 233.443 248.559 233.163ZM242.029 238.913L241.299 239.293C236.209 242.193 231.669 245.803 227.599 249.883C225.059 252.383 222.719 255.153 221.009 258.283C218.669 262.333 217.349 266.563 218.139 271.313C218.439 273.693 219.289 275.783 220.859 277.603C223.639 280.683 227.309 281.193 230.859 279.773C232.959 279.013 234.589 277.533 235.939 275.783C237.739 273.473 238.899 270.713 239.789 267.863C240.849 264.923 241.549 261.893 241.879 258.683C242.639 253.183 242.849 247.593 242.519 242.013C242.509 241.003 242.409 240.003 242.299 238.903L242.029 238.913Z" fill="#290F39"/>
<path d="M271.199 236.663C269.729 236.313 268.619 235.503 267.879 234.143C267.039 232.683 266.749 231.043 266.639 229.393C266.519 226.463 267.219 223.713 268.009 220.953C268.359 219.573 268.799 218.293 269.519 217.093C270.689 215.063 272.319 213.763 274.599 213.193C275.689 212.903 276.799 212.983 277.899 213.343C278.819 213.603 279.559 214.243 280.029 215.153L280.969 216.973C282.329 216.223 283.619 216.483 284.909 217.113C285.829 217.473 286.019 217.833 285.839 218.843C285.139 221.873 284.899 224.983 284.849 228.103C284.789 231.213 285.009 234.323 286.239 237.333C286.799 238.613 287.639 239.603 288.749 240.513C289.489 241.143 290.319 241.313 291.319 241.033C293.779 240.273 295.779 238.783 297.309 236.753C299.479 233.893 300.899 230.763 301.959 227.363C302.579 225.433 303.009 223.503 303.269 221.403C303.269 221.133 303.449 220.853 303.529 220.573C303.619 220.393 303.709 220.293 303.799 220.293C305.139 217.353 307.679 215.303 311.329 214.623C316.439 213.653 322.039 214.873 327.089 216.003C332.599 217.223 338.019 218.993 343.609 219.933C352.319 221.483 362.229 223.293 370.799 220.453C374.449 219.223 378.539 216.973 380.139 213.213C381.299 210.453 380.779 205.153 377.929 203.533C377.649 203.353 377.829 202.983 378.109 202.983C379.949 203.513 381.419 203.863 382.709 205.403C383.819 206.763 384.399 208.773 384.419 210.513C384.559 214.813 381.489 218.693 378.039 221.023C370.409 226.323 360.609 225.343 351.979 223.603C345.279 222.303 338.669 220.553 332.149 218.703C326.269 217.123 320.119 215.273 313.989 215.433C311.609 215.463 309.049 215.853 307.049 217.343C305.779 218.273 304.969 219.473 304.339 220.763L304.349 221.493C303.309 227.093 301.539 232.413 298.389 237.213C297.129 239.243 295.499 240.813 293.319 241.843C291.769 242.503 290.219 242.703 288.659 242.263C285.629 241.473 283.509 239.673 282.099 236.843C280.979 234.653 280.489 232.283 280.189 229.913L279.879 226.893C279.509 226.993 279.519 227.353 279.519 227.533C278.719 229.553 277.829 231.583 276.749 233.513C276.389 234.163 275.939 234.713 275.489 235.263C274.409 236.713 272.949 237.103 271.199 236.663ZM275.099 233.143C276.449 231.393 277.349 229.363 278.149 227.343C279.219 224.583 280.289 221.913 280.339 218.893C280.339 218.713 280.339 218.523 280.239 218.343C279.859 217.253 279.389 216.063 278.559 215.253C277.259 213.983 276.809 214.263 275.719 215.193C274.719 216.113 274.099 217.313 273.559 218.513C272.759 220.623 272.329 222.733 271.979 224.933C271.639 226.953 271.289 228.873 271.409 230.983C271.419 232.173 271.709 233.363 272.179 234.453C272.559 235.363 272.739 235.363 273.459 234.803C274.109 234.343 274.649 233.783 275.099 233.143Z" fill="#290F39"/>
<path d="M114.459 256.593C102.019 256.993 94.4292 231.243 91.1092 218.733C127.169 212.283 128.629 176.353 94.2392 181.143C79.9892 183.083 71.3792 190.133 68.8692 195.643C68.8292 195.733 68.7492 195.813 68.7492 195.913C68.7692 196.423 69.9792 196.693 70.3392 195.993C70.3592 195.953 70.3792 195.903 70.3992 195.863C74.0592 188.033 87.4092 183.273 94.8392 182.403C122.719 179.213 117.729 210.613 90.5792 217.133C89.4492 214.473 87.0492 212.673 84.8592 211.543C86.1192 208.613 89.6492 201.433 90.8492 198.773C92.6492 194.583 91.3792 192.983 87.1892 190.723C85.0592 189.923 86.7192 191.393 85.5892 194.913C83.7892 199.703 81.9992 205.023 79.7992 210.353C76.4692 210.353 73.6792 212.083 73.7492 215.143C73.8192 216.543 74.6792 218.003 76.4792 219.003C73.8192 226.253 71.6892 233.573 71.2192 240.423C70.6892 247.143 74.4092 249.533 74.2792 245.343C74.2792 244.143 74.0092 242.753 74.5492 240.553C76.1492 234.233 78.6792 226.913 81.4692 219.933C83.1292 219.933 84.3992 219.863 85.9892 219.603C88.0492 231.113 97.0292 258.653 114.329 257.993C114.859 257.923 116.659 256.523 114.459 256.593ZM76.9992 217.473C76.0692 217.003 75.3992 216.213 75.3992 215.073C75.4692 213.813 77.0592 212.483 79.0592 212.213C78.3992 213.943 77.6692 215.673 76.9992 217.473ZM81.9892 218.403L83.8492 214.083C84.5192 214.953 85.1792 216.483 85.5792 218.143C84.7892 218.273 83.3192 218.403 81.9892 218.403Z" fill="#290F39"/>
<path d="M95.3492 216.693C95.6692 216.583 95.5592 216.063 95.1392 216.163C93.6592 216.693 87.2192 218.173 87.2192 218.173C72.8492 220.703 58.1692 218.593 43.9092 215.423C36.1992 213.623 28.4892 211.513 20.5592 212.253C13.5892 212.993 6.08921 215.633 2.06921 221.763C0.169209 224.723 -0.570788 228.423 0.479212 231.803C1.63921 235.183 3.85922 236.453 7.13922 237.293C7.55922 237.403 7.76921 236.873 7.45921 236.763C5.34921 235.493 4.28921 231.803 4.28921 229.473C4.17921 226.303 5.65921 223.663 7.87921 221.553C13.2692 216.693 20.6592 215.743 27.6292 215.743C34.9192 215.743 42.0992 217.223 49.2892 218.493C56.5792 219.763 63.8692 220.713 71.1592 220.813C76.6992 220.813 82.2492 220.333 87.6992 219.093C87.9592 219.033 94.0792 217.223 95.3492 216.693Z" fill="#290F39"/>
<path d="M194.379 155.753C194.319 155.963 194.239 156.093 194.239 156.233C194.229 156.583 194.249 156.943 194.269 157.293C194.419 160.243 194.619 163.193 194.709 166.153C194.809 169.263 194.829 172.383 194.859 175.493C194.879 178.013 194.899 180.543 194.869 183.063C194.829 186.133 194.799 189.213 194.649 192.283C194.499 195.433 194.259 198.573 193.959 201.713C193.659 204.933 193.149 208.123 192.489 211.283C192.369 211.863 192.199 212.433 191.849 212.923C191.439 213.503 190.879 213.713 190.199 213.603C189.119 213.433 188.269 212.083 188.739 211.083C189.459 209.573 189.719 207.933 190.059 206.313C190.789 202.793 191.289 199.243 191.619 195.673C192.049 191.043 192.349 186.403 192.379 181.743C192.399 178.393 192.369 175.043 192.459 171.693C192.609 166.563 192.409 161.443 192.269 156.323C192.249 155.573 192.149 154.833 192.069 154.083C192.049 153.893 191.979 153.713 191.899 153.393C191.659 153.643 191.489 153.773 191.379 153.943C189.869 156.223 188.059 158.253 186.019 160.063C183.099 162.653 179.839 164.703 176.219 166.153C173.759 167.143 171.189 167.753 168.549 168.073C162.719 168.773 157.169 167.803 151.839 165.413C148.359 163.853 145.209 161.773 142.309 159.323C136.359 154.293 131.919 148.143 128.749 141.063C126.889 136.913 125.599 132.583 124.839 128.083C124.169 124.103 123.929 120.093 124.039 116.063C124.189 110.403 124.989 104.833 126.619 99.4032C127.639 96.0032 128.989 92.7232 130.499 89.5032C134.159 81.6732 138.839 74.4932 144.239 67.7632C147.329 63.9132 150.589 60.2232 154.049 56.7132C157.369 53.3432 160.679 49.9632 164.019 46.6132C166.549 44.0732 169.119 41.5732 171.659 39.0332C173.419 37.2832 175.159 35.5032 176.879 33.7232C179.469 31.0532 181.729 28.1232 183.569 24.8832C184.989 22.3632 186.069 19.7032 186.679 16.8732C187.609 12.5832 188.109 8.24321 188.189 3.86321C188.209 2.91321 188.219 1.97321 188.249 1.02321C188.259 0.753214 188.319 0.493213 188.359 0.193213C189.079 -0.0467874 189.769 -0.0467837 190.529 0.103216C190.589 0.363216 190.679 0.623215 190.699 0.883215C190.799 2.37322 190.829 3.87321 190.989 5.36321C191.399 9.28321 191.879 13.2032 192.959 17.0032C194.029 20.7732 195.849 24.1532 198.309 27.1932C200.049 29.3432 201.889 31.3832 203.879 33.3132C207.709 37.0132 211.619 40.6232 215.569 44.1832C218.589 46.9032 221.559 49.6632 224.539 52.4232C226.709 54.4332 228.909 56.4132 231.009 58.4932C234.319 61.7632 237.559 65.0932 240.499 68.7132C244.879 74.1132 248.849 79.7932 252.189 85.9032C254.029 89.2632 255.619 92.7332 256.909 96.3432C258.349 100.363 259.269 104.503 259.839 108.743C260.289 112.073 260.459 115.423 260.379 118.773C260.309 121.923 260.049 125.063 259.489 128.183C258.859 131.693 257.919 135.093 256.619 138.413C255.629 140.953 254.399 143.373 252.989 145.713C250.969 149.073 248.699 152.223 245.939 155.033C242.939 158.093 239.629 160.753 235.859 162.813C232.409 164.703 228.769 166.063 224.869 166.683C222.599 167.043 220.329 167.133 218.039 166.973C211.759 166.523 206.029 164.503 200.749 161.113C198.819 159.873 197.049 158.423 195.459 156.773C195.159 156.403 194.889 156.003 194.379 155.753ZM192.359 110.913C192.619 110.553 192.809 110.323 192.969 110.073C195.099 106.633 197.639 103.533 200.759 100.933C203.159 98.9232 205.699 97.1332 208.559 95.8432C211.939 94.3032 215.409 93.0432 219.069 92.3132C222.349 91.6532 225.639 91.5132 228.949 91.9432C233.109 92.4832 236.829 94.0832 240.149 96.6632C243.209 99.0432 245.639 101.973 247.669 105.243C248.979 107.363 249.969 109.633 250.759 112.003C251.729 114.903 252.289 117.873 252.459 120.913C252.609 123.613 252.259 126.263 251.769 128.903C251.509 130.333 251.129 131.753 250.699 133.143C250.219 134.683 249.599 136.173 248.859 137.623C247.359 140.563 245.439 143.183 243.119 145.533C240.969 147.703 238.569 149.543 235.889 151.013C232.679 152.773 229.279 153.943 225.639 154.453C219.799 155.273 214.239 154.473 209.009 151.713C205.699 149.973 202.749 147.763 200.389 144.813C198.129 141.993 196.579 138.833 195.879 135.293C195.249 132.093 195.219 128.863 195.729 125.643C196.389 121.503 197.889 117.673 200.119 114.123C202.889 109.723 206.539 106.273 211.119 103.803C213.989 102.253 217.039 101.233 220.239 100.633C222.429 100.213 224.619 100.093 226.829 100.323C231.129 100.763 234.769 102.573 237.729 105.693C240.209 108.303 241.979 111.363 243.029 114.813C243.469 116.243 243.849 117.703 244.069 119.173C244.529 122.243 244.359 125.303 243.609 128.323C242.009 134.773 238.569 139.893 232.869 143.423C229.929 145.243 226.729 146.263 223.299 146.573C220.799 146.803 218.339 146.553 215.929 145.853C212.229 144.773 209.109 142.793 206.739 139.733C204.399 136.713 203.359 133.263 203.479 129.473C203.569 126.563 204.269 123.783 205.509 121.143C206.849 118.293 208.569 115.723 211.019 113.703C212.419 112.543 213.949 111.563 215.589 110.773C218.279 109.473 221.069 108.563 224.099 108.553C226.589 108.543 228.849 109.253 230.859 110.703C232.669 112.003 233.889 113.793 234.799 115.783C236.359 119.203 236.609 122.813 235.829 126.433C234.839 131.063 232.219 134.643 228.099 136.983C224.579 138.983 220.849 139.253 217.059 137.693C212.789 135.933 211.259 131.623 211.789 128.203C212.309 124.833 213.859 122.033 216.449 119.813C218.249 118.263 220.279 117.203 222.639 116.803C223.609 116.633 224.529 116.773 225.419 117.123C227.039 117.753 227.879 119.063 228.229 120.673C228.689 122.733 228.499 124.763 227.539 126.663C226.739 128.243 225.649 129.563 224.029 130.383C223.109 130.853 222.159 130.983 221.159 130.733C220.289 130.523 219.889 130.063 219.799 129.173C219.709 128.263 219.959 127.463 220.549 126.753C220.999 126.203 221.449 125.653 221.899 125.113C222.229 124.703 222.449 124.243 222.509 123.723C222.529 123.553 222.459 123.363 222.409 123.103C222.039 123.243 221.729 123.313 221.459 123.463C219.549 124.563 218.299 126.153 217.879 128.353C217.739 129.073 217.809 129.763 218.039 130.453C218.419 131.613 219.219 132.353 220.389 132.533C222.349 132.833 224.219 132.603 225.909 131.383C228.689 129.363 230.079 126.613 230.339 123.253C230.459 121.703 230.219 120.173 229.599 118.743C228.629 116.523 227.039 115.073 224.529 114.853C223.549 114.763 222.559 114.853 221.589 115.063C219.579 115.483 217.789 116.383 216.149 117.573C211.809 120.743 209.539 125.043 209.649 130.423C209.709 133.723 211.179 136.423 213.939 138.323C216.989 140.423 220.409 141.003 223.989 140.413C227.589 139.823 230.669 138.153 233.189 135.453C236.389 132.013 238.049 127.953 238.189 123.273C238.309 119.343 237.349 115.683 235.159 112.393C232.139 107.843 227.799 106.013 222.449 106.553C219.809 106.823 217.319 107.723 214.909 108.873C211.229 110.633 208.239 113.183 205.919 116.523C202.759 121.083 201.189 126.093 201.539 131.663C201.619 132.973 201.839 134.253 202.249 135.493C203.229 138.463 204.779 141.063 207.139 143.173C210.009 145.723 213.269 147.453 217.029 148.213C219.959 148.803 222.899 148.873 225.839 148.203C226.759 147.993 227.689 147.813 228.589 147.533C231.549 146.583 234.219 145.083 236.639 143.143C239.909 140.523 242.289 137.233 244.019 133.443C245.019 131.243 245.599 128.903 245.969 126.523C246.389 123.813 246.409 121.103 245.969 118.393C245.279 114.163 243.749 110.273 241.229 106.783C239.759 104.753 238.059 102.953 236.019 101.503C233.809 99.9332 231.359 98.9032 228.659 98.4332C226.309 98.0232 223.959 97.8732 221.599 98.2332C217.509 98.8632 213.629 100.193 210.019 102.183C202.929 106.103 198.029 111.933 195.229 119.513C193.589 123.943 192.989 128.503 193.499 133.223C193.779 135.803 194.429 138.263 195.459 140.613C196.839 143.763 198.849 146.463 201.379 148.783C206.339 153.333 212.139 156.003 218.849 156.613C219.709 156.693 220.579 156.703 221.449 156.703C223.699 156.703 225.949 156.513 228.139 156.023C232.389 155.073 236.259 153.273 239.839 150.813C241.999 149.333 243.889 147.563 245.659 145.643C248.059 143.033 249.929 140.083 251.369 136.863C252.269 134.843 252.919 132.743 253.479 130.593C254.029 128.483 254.289 126.323 254.389 124.173C254.499 121.733 254.469 119.283 254.039 116.863C253.759 115.273 253.459 113.693 252.949 112.143C251.899 108.903 250.469 105.843 248.579 102.993C246.809 100.323 244.799 97.8332 242.349 95.7632C238.789 92.7632 234.749 90.7132 230.119 89.9132C227.649 89.4832 225.189 89.3932 222.699 89.6232C221.209 89.7632 219.739 90.0732 218.279 90.3732C214.629 91.1332 211.139 92.3632 207.779 93.9432C203.409 95.9832 199.579 98.7832 196.279 102.313C194.929 103.753 193.719 105.303 192.599 106.933C192.379 107.263 192.159 107.583 192.159 108.003C192.169 108.833 192.169 109.653 192.179 110.483C192.179 110.553 192.239 110.623 192.359 110.913ZM192.369 121.253C192.649 120.993 192.699 120.773 192.759 120.553C192.929 119.943 193.089 119.333 193.289 118.743C193.809 117.163 194.549 115.683 195.319 114.223C197.619 109.873 200.689 106.163 204.589 103.163C206.779 101.473 209.159 100.083 211.709 98.9832C214.729 97.6832 217.819 96.6532 221.089 96.2132C224.739 95.7132 228.319 95.8732 231.839 97.0432C234.379 97.8932 236.709 99.1332 238.709 100.893C243.309 104.963 246.209 110.063 247.579 116.043C248.399 119.623 248.439 123.233 247.959 126.853C247.549 129.963 246.629 132.933 245.189 135.723C243.489 139.013 241.289 141.903 238.429 144.303C234.359 147.703 229.759 149.863 224.479 150.483C220.409 150.963 216.449 150.583 212.639 149.023C209.529 147.753 206.749 145.973 204.519 143.443C200.539 138.953 198.869 133.683 199.529 127.713C199.849 124.793 200.669 122.003 201.919 119.343C203.899 115.113 206.719 111.583 210.569 108.913C212.689 107.443 215.019 106.413 217.469 105.583C219.819 104.793 222.199 104.413 224.669 104.433C229.079 104.473 232.729 106.123 235.539 109.513C237.639 112.043 238.979 114.953 239.739 118.153C240.519 121.453 240.379 124.743 239.539 127.983C238.859 130.593 237.689 133.013 236.049 135.173C232.299 140.123 227.329 142.653 221.089 142.613C218.309 142.593 215.709 141.863 213.349 140.373C209.589 138.003 207.649 134.533 207.559 130.123C207.469 125.583 209.229 121.663 212.179 118.283C214.359 115.783 217.189 114.223 220.329 113.243C221.999 112.723 223.749 112.643 225.489 112.873C226.849 113.053 228.049 113.623 229.069 114.563C230.629 116.003 231.569 117.803 231.989 119.853C232.509 122.423 232.369 124.953 231.379 127.403C230.199 130.333 228.239 132.553 225.379 133.963C223.469 134.903 221.519 134.983 219.509 134.373C217.559 133.783 216.389 132.453 215.959 130.483C215.629 128.973 215.809 127.503 216.439 126.093C217.399 123.953 219.019 122.443 221.059 121.363C221.539 121.103 222.079 120.933 222.609 120.793C223.319 120.603 223.839 120.863 224.179 121.513C224.609 122.313 224.679 123.163 224.469 124.043C224.189 125.183 223.639 126.163 222.829 127.003C222.579 127.253 222.329 127.503 222.089 127.773C221.929 127.953 221.789 128.163 221.899 128.413C222.029 128.723 222.329 128.723 222.609 128.723C223.149 128.723 223.589 128.483 224.009 128.153C226.069 126.543 227.019 123.393 226.259 120.893C225.679 119.003 224.149 118.593 222.779 118.763C222.619 118.783 222.469 118.833 222.319 118.873C219.409 119.663 217.199 121.413 215.529 123.883C214.229 125.813 213.589 127.913 213.829 130.253C214.029 132.243 214.789 133.933 216.499 135.033C218.789 136.513 221.309 136.963 223.979 136.403C226.659 135.833 228.859 134.413 230.639 132.363C233.329 129.263 234.529 125.643 234.219 121.553C234.019 118.913 233.229 116.453 231.609 114.313C230.059 112.273 228.049 111.013 225.459 110.713C223.549 110.493 221.679 110.693 219.849 111.263C217.219 112.073 214.849 113.393 212.659 115.033C211.159 116.153 209.939 117.533 208.919 119.103C208.099 120.363 207.439 121.703 206.889 123.103C205.639 126.253 205.169 129.483 205.799 132.843C206.139 134.693 206.859 136.383 207.959 137.913C210.339 141.233 213.559 143.313 217.529 144.173C221.659 145.063 225.699 144.583 229.549 142.853C234.439 140.663 237.909 137.013 240.149 132.183C241.649 128.953 242.329 125.543 242.209 121.963C242.019 116.653 240.319 111.933 236.889 107.863C234.139 104.593 230.609 102.773 226.379 102.363C224.689 102.203 222.979 102.233 221.309 102.503C216.669 103.243 212.469 105.053 208.689 107.823C206.899 109.133 205.289 110.643 203.889 112.363C201.179 115.683 199.349 119.463 198.279 123.593C197.329 127.263 197.139 130.983 197.899 134.723C198.549 137.913 199.909 140.763 201.899 143.333C204.169 146.263 207.079 148.403 210.319 150.093C215.059 152.573 220.139 153.163 225.379 152.383C229.039 151.843 232.479 150.623 235.659 148.693C241.789 144.973 246.129 139.783 248.549 133.043C249.639 130.023 250.129 126.873 250.299 123.663C250.509 119.663 249.849 115.793 248.579 112.033C247.209 107.983 244.979 104.403 242.089 101.273C236.569 95.3032 229.689 93.0132 221.669 93.9732C219.549 94.2232 217.489 94.7632 215.449 95.3732C212.609 96.2332 209.919 97.4532 207.339 98.9132C203.539 101.043 200.319 103.843 197.579 107.213C195.579 109.673 193.969 112.373 192.559 115.203C192.339 115.643 192.239 116.083 192.239 116.563C192.259 117.903 192.259 119.243 192.279 120.583C192.249 120.773 192.309 120.943 192.369 121.253ZM164.759 101.623C164.729 101.893 164.689 102.013 164.709 102.113C165.009 103.273 165.899 104.043 167.159 104.183C168.409 104.323 169.599 104.093 170.699 103.473C172.759 102.323 174.139 100.623 174.759 98.3332C175.539 95.4732 175.139 92.7732 173.499 90.3032C172.419 88.6732 170.899 87.8332 168.889 87.9932C168.099 88.0532 167.329 88.2032 166.589 88.4932C162.169 90.2232 158.999 93.2532 157.259 97.6632C155.969 100.953 156.299 104.153 158.229 107.153C160.739 111.053 165.979 112.743 169.679 112.023C175.789 110.833 179.839 107.273 181.959 101.473C182.629 99.6432 182.869 97.7432 182.829 95.7832C182.779 93.6832 182.629 91.6332 181.979 89.6032C180.969 86.4832 179.299 83.8232 176.799 81.7032C175.219 80.3732 173.399 79.5532 171.319 79.4632C169.419 79.3732 167.549 79.6032 165.719 80.1732C162.859 81.0632 160.269 82.4432 157.869 84.2132C154.329 86.8132 151.569 90.0332 149.839 94.0932C147.729 99.0632 147.699 104.053 149.839 109.023C151.449 112.783 154.129 115.593 157.679 117.583C159.169 118.423 160.739 119.033 162.389 119.463C167.259 120.743 172.039 120.453 176.599 118.343C183.379 115.203 187.829 109.973 189.989 102.813C190.119 102.363 190.229 101.883 190.229 101.423C190.239 97.4832 190.239 93.5432 190.209 89.6032C190.209 89.0132 190.139 88.4132 189.989 87.8532C189.429 85.7932 188.689 83.8032 187.689 81.9132C186.339 79.3832 184.609 77.1432 182.549 75.1732C178.579 71.3732 173.879 69.8632 168.439 70.7432C165.549 71.2132 162.759 72.0232 160.079 73.2432C155.289 75.4332 151.009 78.3132 147.459 82.2432C144.149 85.9132 141.829 90.0932 140.659 94.9132C139.469 99.8232 139.589 104.683 141.129 109.493C142.799 114.703 145.749 119.043 150.139 122.353C153.529 124.913 157.289 126.623 161.439 127.533C163.809 128.053 166.179 128.303 168.599 128.163C169.109 128.133 169.619 128.133 170.139 128.123C172.559 128.033 174.919 127.553 177.199 126.753C180.719 125.503 183.939 123.683 186.819 121.303C187.789 120.503 188.679 119.603 189.599 118.743C189.969 118.403 190.139 117.983 190.099 117.473C190.069 117.083 190.089 116.683 190.069 116.293C190.059 116.153 189.979 116.023 189.899 115.793C189.679 115.993 189.539 116.113 189.409 116.253C186.279 119.593 182.709 122.333 178.469 124.163C174.779 125.753 170.929 126.433 166.939 126.303C163.599 126.193 160.379 125.463 157.279 124.203C153.289 122.583 149.899 120.123 147.249 116.723C144.479 113.163 142.779 109.143 142.229 104.653C141.829 101.403 141.949 98.2232 142.829 95.0532C144.309 89.6932 147.139 85.1832 151.219 81.4432C154.659 78.2832 158.619 75.9632 163.009 74.3832C165.669 73.4232 168.389 72.8432 171.219 72.8532C172.969 72.8532 174.679 73.1232 176.309 73.7832C178.809 74.7932 180.899 76.3732 182.679 78.3832C185.289 81.3332 187.029 84.7332 188.089 88.5132C189.359 93.0232 189.469 97.5332 188.239 102.053C187.099 106.263 184.919 109.853 181.649 112.783C179.569 114.643 177.239 116.103 174.609 117.043C172.489 117.813 170.299 118.353 168.029 118.323C165.279 118.283 162.629 117.683 160.109 116.573C158.289 115.773 156.619 114.733 155.209 113.313C152.149 110.253 150.599 106.493 150.309 102.213C150.179 100.183 150.569 98.2132 151.219 96.2932C152.479 92.5832 154.649 89.4832 157.619 86.9432C159.339 85.4832 161.239 84.2732 163.299 83.3432C165.539 82.3232 167.859 81.5932 170.369 81.6832C171.489 81.7232 172.559 81.9132 173.589 82.3632C175.179 83.0732 176.449 84.1532 177.509 85.5132C178.759 87.1232 179.629 88.9132 180.219 90.8632C181.069 93.6832 181.199 96.5532 180.539 99.3932C179.609 103.373 177.369 106.493 173.819 108.583C170.809 110.363 167.659 110.773 164.289 109.523C159.989 107.923 157.739 103.393 158.889 99.2232C159.899 95.5732 162.209 92.9332 165.469 91.0832C166.589 90.4432 167.809 90.1632 169.099 90.1532C170.449 90.1432 171.469 90.7532 172.139 91.8732C172.519 92.5032 172.819 93.2232 172.999 93.9332C173.549 96.1232 173.069 98.1632 171.859 100.023C170.759 101.723 169.179 102.533 167.129 102.293C166.659 102.233 166.209 102.103 165.749 101.973C165.459 101.883 165.169 101.763 164.759 101.623ZM166.409 97.6232C165.949 97.8232 165.689 98.1732 165.439 98.5232C165.199 98.8532 165.239 99.2032 165.539 99.4832C166.789 100.643 168.699 100.883 169.979 99.1832C171.289 97.4432 171.529 95.5132 170.799 93.4732C170.489 92.5932 169.919 92.2132 168.999 92.2332C168.529 92.2432 168.059 92.3232 167.599 92.4332C166.819 92.6132 166.139 93.0032 165.469 93.4332C163.169 94.9532 161.619 97.0332 160.899 99.6832C160.509 101.123 160.579 102.563 161.169 103.963C162.289 106.653 165.819 108.683 169.099 108.063C173.789 107.173 176.859 104.373 178.329 99.8732C179.459 96.3932 179.129 92.9432 177.649 89.6132C177.019 88.1932 176.169 86.9132 175.039 85.8532C173.059 83.9932 170.739 83.3332 168.059 83.9032C165.309 84.4832 162.849 85.6632 160.559 87.2532C157.079 89.6632 154.589 92.8532 153.209 96.8532C152.599 98.6132 152.239 100.423 152.369 102.313C152.439 103.423 152.709 104.493 152.999 105.553C153.799 108.503 155.409 110.943 157.859 112.773C161.839 115.733 166.309 116.763 171.169 115.833C175.759 114.953 179.459 112.513 182.439 108.933C183.869 107.213 184.859 105.253 185.679 103.193C186.539 101.043 186.919 98.7932 187.029 96.5032C187.149 94.0432 186.829 91.6132 186.189 89.2432C185.079 85.0732 182.959 81.4632 179.799 78.5132C178.009 76.8332 175.899 75.7132 173.479 75.2132C171.359 74.7732 169.229 74.9332 167.139 75.4032C163.169 76.2932 159.539 77.9632 156.169 80.2332C153.829 81.8132 151.779 83.6932 149.949 85.8332C147.549 88.6332 145.959 91.8732 144.879 95.3732C144.359 97.0732 144.099 98.8332 144.029 100.613C143.929 102.913 144.229 105.173 144.859 107.393C145.589 109.953 146.669 112.363 148.189 114.543C150.879 118.383 154.529 120.993 158.879 122.603C162.159 123.813 165.569 124.373 169.089 124.203C172.319 124.053 175.399 123.283 178.329 121.933C181.069 120.673 183.559 119.013 185.779 116.973C187.149 115.713 188.369 114.323 189.439 112.803C189.679 112.453 189.959 112.053 189.999 111.653C190.069 110.833 189.999 110.003 189.969 109.183C189.969 109.133 189.859 109.083 189.759 108.993C189.619 109.183 189.489 109.373 189.359 109.563C188.929 110.223 188.529 110.913 188.059 111.533C184.359 116.433 179.689 119.923 173.679 121.513C170.529 122.343 167.379 122.473 164.189 121.963C162.319 121.663 160.499 121.113 158.749 120.383C156.769 119.563 154.919 118.513 153.309 117.093C150.049 114.223 147.849 110.713 146.799 106.483C146.049 103.493 145.899 100.513 146.559 97.4732C147.719 92.1532 150.419 87.7532 154.439 84.1732C157.999 81.0032 162.139 78.8532 166.779 77.6932C168.239 77.3232 169.729 77.1632 171.239 77.2432C173.889 77.3832 176.219 78.3532 178.229 80.0732C180.459 81.9832 182.049 84.3532 183.209 87.0332C184.749 90.5932 185.219 94.3232 184.769 98.1432C184.189 103.083 182.089 107.243 178.169 110.413C176.269 111.953 174.149 113.073 171.799 113.683C168.499 114.543 165.229 114.333 162.079 112.953C159.659 111.903 157.689 110.313 156.329 108.033C153.999 104.113 153.849 100.063 155.739 95.9232C157.009 93.1332 158.929 90.8732 161.369 89.0432C163.319 87.5732 165.459 86.5232 167.879 86.0832C168.889 85.9032 169.909 85.8532 170.929 86.0632C172.749 86.4232 174.049 87.5332 175.059 89.0032C176.429 91.0132 177.069 93.2432 177.059 95.6932C177.049 97.9232 176.529 99.9832 175.309 101.853C173.879 104.073 171.879 105.533 169.309 106.143C167.339 106.623 165.539 106.203 164.069 104.753C163.229 103.923 162.779 102.913 162.689 101.703C162.479 98.6332 164.679 95.3732 167.659 94.3932C168.069 94.2632 168.479 94.1132 168.919 94.2832C169.519 95.5032 169.539 96.1032 168.999 97.1932C168.859 97.4732 168.709 97.7532 168.529 98.0132C168.199 98.5132 167.829 98.6032 167.329 98.2832C167.009 98.1032 166.709 97.8532 166.409 97.6232ZM193.099 140.433C193.019 140.443 192.949 140.453 192.869 140.463C192.849 140.603 192.819 140.753 192.829 140.893C192.879 141.643 192.999 142.393 192.969 143.133C192.919 144.293 193.249 145.303 193.909 146.233C194.049 146.423 194.169 146.623 194.309 146.823C196.129 149.433 198.369 151.643 200.839 153.623C203.789 155.973 207.059 157.793 210.619 159.053C212.179 159.603 213.759 160.123 215.409 160.333C216.809 160.523 218.229 160.653 219.639 160.783C221.849 160.993 224.059 160.833 226.239 160.513C230.089 159.963 233.759 158.823 237.249 157.063C240.979 155.173 244.319 152.783 247.239 149.793C250.829 146.113 253.269 141.733 255.039 136.953C255.849 134.773 256.449 132.523 256.989 130.263C257.799 126.873 258.209 123.433 258.289 119.963C258.389 115.563 257.359 111.363 255.679 107.313C253.999 103.273 251.679 99.6332 248.789 96.3432C246.959 94.2632 244.929 92.4032 242.679 90.7932C239.399 88.4532 235.789 86.8232 231.859 85.9232C229.419 85.3632 226.939 85.2332 224.449 85.4232C221.409 85.6432 218.479 86.4632 215.569 87.3432C213.719 87.8932 211.899 88.5432 209.979 88.8232C209.629 88.8732 209.279 88.9732 208.949 89.0932C207.169 89.7232 205.399 90.4032 203.729 91.3032C199.769 93.4332 196.259 96.1532 193.299 99.5332C191.969 101.043 192.079 100.873 192.189 102.943C192.199 103.073 192.319 103.193 192.399 103.353C192.859 103.123 193.079 102.723 193.369 102.413C194.309 101.403 195.189 100.333 196.179 99.3832C200.769 94.9532 206.139 91.8232 212.209 89.8832C213.409 89.5032 214.629 89.1832 215.839 88.8132C218.959 87.8732 222.149 87.4532 225.399 87.4032C230.889 87.3132 235.919 88.8132 240.499 91.7732C243.609 93.7832 246.239 96.3232 248.499 99.2532C252.719 104.733 255.469 110.843 256.219 117.783C256.569 120.973 256.569 124.153 256.179 127.333C255.919 129.403 255.429 131.433 254.829 133.443C253.149 139.123 250.209 144.083 246.099 148.283C241.169 153.323 235.209 156.673 228.229 158.103C224.169 158.933 220.099 159.033 216.009 158.373C214.019 158.053 212.079 157.533 210.199 156.793C207.319 155.663 204.669 154.123 202.219 152.233C198.369 149.263 195.349 145.643 193.429 141.153C193.349 140.903 193.219 140.673 193.099 140.433ZM189.719 73.4232C190.079 73.1032 189.929 72.7332 189.939 72.3932C189.979 70.6132 190.089 70.7632 188.889 69.4232C188.789 69.3032 188.689 69.1732 188.589 69.0532C186.569 66.7032 184.299 64.6432 181.549 63.1832C178.899 61.7732 176.089 61.0032 173.059 60.9432C169.779 60.8832 166.629 61.5432 163.529 62.5032C160.589 63.4132 157.749 64.5732 154.999 65.9732C150.029 68.5032 145.599 71.7532 141.799 75.8332C138.389 79.4932 135.559 83.5532 133.829 88.3032C132.599 91.6932 131.739 95.1532 131.589 98.7732C131.409 103.013 131.669 107.193 132.879 111.293C133.739 114.193 134.969 116.893 136.549 119.463C138.369 122.413 140.689 124.913 143.259 127.213C146.469 130.083 150.079 132.293 154.119 133.793C158.519 135.423 163.079 136.243 167.779 136.293C171.029 136.323 174.229 135.923 177.359 135.043C181.269 133.953 184.879 132.223 188.229 129.933C188.779 129.553 189.319 129.153 189.819 128.703C190.439 128.153 190.499 127.283 189.999 126.453C189.829 126.553 189.649 126.623 189.499 126.743C187.619 128.253 185.569 129.513 183.419 130.603C179.799 132.443 175.989 133.643 171.949 134.123C169.159 134.453 166.369 134.443 163.569 134.123C160.099 133.723 156.779 132.743 153.549 131.423C152.129 130.843 150.739 130.183 149.409 129.393C145.459 127.043 142.129 124.003 139.469 120.253C137.469 117.433 135.929 114.393 134.979 111.053C134.439 109.153 134.019 107.223 133.789 105.273C133.629 103.863 133.399 102.463 133.499 101.033C133.589 99.7332 133.649 98.4332 133.799 97.1432C134.319 92.7132 135.599 88.5132 137.799 84.6132C140.159 80.4432 143.279 76.9132 146.909 73.8332C150.519 70.7732 154.579 68.4432 158.919 66.5932C161.419 65.5232 163.979 64.6132 166.669 64.0932C168.809 63.6832 170.949 63.3832 173.129 63.4932C177.069 63.6732 180.589 65.0032 183.709 67.4132C185.559 68.8432 187.179 70.5032 188.639 72.3232C188.989 72.7232 189.269 73.1532 189.719 73.4232ZM189.969 81.3432C190.039 81.0332 190.089 80.8932 190.089 80.7432C190.099 80.1932 190.069 79.6432 190.079 79.0832C190.099 78.3932 189.899 77.7832 189.519 77.1932C187.809 74.5232 185.809 72.1132 183.379 70.0532C179.809 67.0232 175.669 65.6832 171.029 65.8632C168.739 65.9532 166.489 66.3832 164.289 67.0232C159.669 68.3632 155.399 70.4632 151.419 73.1332C147.679 75.6432 144.509 78.7532 141.869 82.3732C139.679 85.3832 138.019 88.6832 136.959 92.2832C136.249 94.6832 135.819 97.1232 135.719 99.6032C135.609 102.443 135.769 105.273 136.389 108.063C136.809 109.953 137.309 111.823 138.099 113.583C139.819 117.453 142.239 120.823 145.379 123.673C149.889 127.773 155.109 130.463 161.119 131.593C164.079 132.153 167.059 132.293 170.069 132.133C172.279 132.013 174.459 131.663 176.589 131.073C179.499 130.283 182.219 129.043 184.809 127.503C186.509 126.493 188.109 125.343 189.569 124.013C189.799 123.803 190.079 123.563 190.139 123.293C190.279 122.693 190.289 122.073 190.009 121.383C189.709 121.583 189.479 121.713 189.279 121.883C188.419 122.573 187.579 123.293 186.689 123.953C182.829 126.793 178.589 128.823 173.849 129.713C172.149 130.033 170.439 130.313 168.699 130.343C166.759 130.373 164.849 130.223 162.929 129.913C158.999 129.283 155.279 128.063 151.839 126.033C149.409 124.603 147.199 122.893 145.289 120.823C141.769 116.993 139.479 112.533 138.409 107.423C137.309 102.203 137.569 97.0732 139.259 92.0332C141.139 86.4032 144.429 81.6932 148.889 77.8132C153.349 73.9332 158.389 71.0532 164.089 69.4232C166.939 68.6032 169.849 68.0932 172.839 68.3032C175.149 68.4632 177.349 69.0332 179.399 70.1232C181.879 71.4332 183.899 73.2932 185.729 75.3932C187.159 77.0332 188.369 78.8332 189.489 80.6932C189.599 80.8832 189.739 81.0432 189.969 81.3432ZM129.339 98.2632C129.159 98.6432 129.079 98.7632 129.029 98.9032C128.599 100.373 128.189 101.853 127.749 103.333C127.499 104.183 127.409 105.043 127.559 105.903C127.909 107.883 128.189 109.883 128.709 111.813C130.079 116.823 132.479 121.323 135.779 125.333C138.379 128.493 141.439 131.143 144.819 133.433C148.039 135.603 151.499 137.313 155.219 138.453C159.589 139.793 164.069 140.373 168.629 140.333C169.849 140.323 171.069 140.193 172.289 140.103C173.819 139.983 175.339 139.753 176.839 139.373C180.029 138.573 183.079 137.403 185.969 135.853C187.249 135.163 188.499 134.403 189.719 133.613C190.509 133.103 190.609 132.153 190.079 131.273C190.039 131.283 189.999 131.273 189.959 131.293C189.819 131.373 189.679 131.443 189.559 131.533C186.709 133.543 183.639 135.143 180.369 136.353C178.929 136.883 177.459 137.343 175.959 137.673C172.319 138.463 168.629 138.633 164.909 138.363C160.339 138.033 155.979 136.873 151.779 135.083C147.819 133.393 144.349 130.963 141.139 128.123C137.569 124.973 134.789 121.233 132.759 116.943C130.749 112.683 129.729 108.163 129.499 103.473C129.419 101.943 129.499 100.403 129.499 98.8632C129.499 98.7532 129.439 98.6432 129.339 98.2632ZM190.349 135.833C190.059 135.983 189.849 136.093 189.649 136.193C188.299 136.933 186.969 137.703 185.599 138.393C183.199 139.613 180.669 140.483 178.089 141.223C176.039 141.813 173.959 142.273 171.819 142.363C168.749 142.493 165.689 142.493 162.609 142.163C157.679 141.633 153.029 140.243 148.629 138.023C144.529 135.953 140.779 133.343 137.449 130.163C133.669 126.553 130.619 122.433 128.589 117.593C127.969 116.103 127.449 114.573 126.889 113.063C126.809 112.863 126.799 112.563 126.349 112.703C126.239 113.483 126.139 114.293 126.019 115.113C125.899 115.883 126.049 116.583 126.339 117.293C128.399 122.413 131.439 126.883 135.329 130.783C139.269 134.733 143.809 137.823 148.819 140.253C150.739 141.183 152.709 141.973 154.779 142.513C157.719 143.283 160.679 143.953 163.699 144.253C165.229 144.403 166.759 144.523 168.299 144.523C172.029 144.523 175.659 143.863 179.249 142.843C182.839 141.823 186.209 140.323 189.429 138.453C190.659 137.743 190.629 137.853 190.529 136.293C190.509 136.203 190.439 136.093 190.349 135.833ZM126.489 123.083C126.299 123.813 126.409 124.283 126.449 124.733C126.539 125.683 126.779 126.573 127.349 127.383C129.979 131.113 132.989 134.473 136.559 137.323C141.789 141.503 147.559 144.673 154.019 146.523C157.709 147.573 161.459 148.323 165.289 148.483C168.879 148.633 172.459 148.473 175.999 147.763C180.229 146.903 184.309 145.613 188.149 143.593C188.849 143.223 189.549 142.863 190.229 142.473C190.419 142.363 190.659 142.173 190.699 141.983C190.809 141.463 190.829 140.923 190.589 140.443C190.419 140.443 190.339 140.423 190.269 140.453C190.089 140.533 189.919 140.623 189.749 140.723C187.219 142.093 184.609 143.313 181.869 144.213C180.449 144.673 178.999 145.073 177.549 145.443C174.749 146.153 171.899 146.583 169.019 146.593C166.779 146.603 164.529 146.453 162.299 146.223C157.599 145.723 153.089 144.483 148.769 142.563C145.989 141.323 143.379 139.783 140.869 138.073C137.469 135.753 134.389 133.063 131.659 129.973C130.039 128.143 128.629 126.143 127.259 124.113C127.059 123.833 126.849 123.563 126.489 123.083ZM128.069 132.263C128.009 132.473 127.949 132.553 127.969 132.613C128.229 133.563 128.479 134.513 128.789 135.443C128.879 135.723 129.109 135.993 129.329 136.203C130.319 137.163 131.309 138.123 132.349 139.033C135.809 142.043 139.579 144.613 143.669 146.723C147.609 148.753 151.749 150.273 156.049 151.313C160.009 152.273 164.049 152.623 168.119 152.703C169.139 152.723 170.179 152.723 171.189 152.603C173.929 152.293 176.639 151.843 179.319 151.133C182.919 150.183 186.369 148.883 189.689 147.203C189.969 147.063 190.259 146.923 190.519 146.743C190.669 146.633 190.849 146.473 190.889 146.313C191.019 145.783 191.049 145.243 190.719 144.693C190.419 144.813 190.159 144.893 189.929 145.013C187.669 146.233 185.329 147.253 182.909 148.113C178.599 149.633 174.169 150.463 169.609 150.653C167.319 150.753 165.039 150.603 162.769 150.403C160.049 150.163 157.379 149.663 154.749 148.973C149.869 147.683 145.329 145.603 141.029 143.003C136.619 140.343 132.669 137.093 129.199 133.283C128.859 132.923 128.559 132.563 128.069 132.263ZM131.349 141.313C131.279 141.373 131.219 141.423 131.149 141.483C131.729 142.583 132.189 143.753 132.969 144.753C133.159 144.993 133.419 145.203 133.669 145.383C134.609 146.033 135.549 146.683 136.509 147.303C140.209 149.653 144.079 151.683 148.209 153.203C150.169 153.923 152.119 154.673 154.159 155.153C158.239 156.103 162.349 156.793 166.559 156.823C169.599 156.843 172.619 156.693 175.629 156.173C179.139 155.563 182.539 154.583 185.869 153.353C187.119 152.893 188.329 152.283 189.549 151.743C190.149 151.473 190.569 151.003 190.919 150.473C191.229 150.013 191.199 149.533 190.879 149.003C190.539 149.153 190.259 149.273 189.979 149.403C188.689 150.003 187.439 150.683 186.119 151.193C183.509 152.203 180.839 153.043 178.109 153.693C175.489 154.313 172.849 154.713 170.159 154.753C168.509 154.773 166.849 154.743 165.199 154.723C159.969 154.673 154.969 153.463 150.069 151.753C148.139 151.083 146.249 150.263 144.399 149.393C141.139 147.883 137.989 146.163 135.129 143.963C134.439 143.433 133.719 142.953 133.009 142.453C132.459 142.053 131.899 141.683 131.349 141.313ZM256.869 104.563C256.929 104.393 256.979 104.313 256.969 104.253C256.529 102.293 256.139 100.323 255.369 98.4532C255.119 97.8432 254.799 97.2332 254.419 96.7032C251.819 93.0332 248.619 89.9632 244.939 87.4032C241.819 85.2232 238.459 83.5132 234.779 82.4932C233.639 82.1832 232.479 81.9832 231.329 81.7232C230.919 81.6332 230.459 81.6832 229.969 81.2832C231.149 80.1432 232.479 79.2332 233.559 78.0532C234.629 76.8832 235.589 75.6432 236.499 74.3532C237.419 73.0332 238.279 71.6732 238.899 70.2432C238.289 69.2732 238.219 69.2132 237.579 68.8832C237.539 68.9032 237.489 68.9032 237.479 68.9332C237.169 69.4332 236.849 69.9232 236.559 70.4332C234.059 74.8132 230.699 78.4132 226.639 81.3832C225.909 81.9132 225.139 82.4032 224.389 82.9032C224.259 82.9932 224.139 83.0932 224.249 83.3032C224.349 83.3232 224.459 83.3732 224.569 83.3632C226.579 83.1332 228.579 83.2832 230.569 83.5832C234.119 84.1132 237.459 85.2632 240.579 87.0032C246.199 90.1332 250.679 94.4932 254.119 99.9132C254.979 101.273 255.719 102.713 256.529 104.113C256.589 104.263 256.719 104.383 256.869 104.563ZM189.899 66.7032C189.899 65.9032 189.899 65.2332 189.899 64.5732C189.899 64.2332 189.759 63.9632 189.529 63.7332C187.779 62.0332 186.039 60.3132 183.929 59.0232C180.539 56.9532 176.889 55.9432 172.899 56.0732C169.519 56.1832 166.239 56.8032 163.029 57.8232C158.999 59.1132 155.159 60.8432 151.529 63.0332C150.559 63.6132 149.749 64.3232 149.059 65.1932C148.239 66.2032 147.419 67.2132 146.609 68.2332C146.559 68.3032 146.569 68.4232 146.539 68.6632C146.879 68.4432 147.099 68.2932 147.319 68.1432C153.369 63.8432 159.999 60.8132 167.249 59.1832C169.999 58.5632 172.799 58.4132 175.599 58.7432C179.679 59.2232 183.179 61.0532 186.289 63.6732C187.129 64.3832 187.889 65.1932 188.699 65.9432C188.999 66.2132 189.239 66.6032 189.899 66.7032ZM192.459 86.4432C192.919 86.4532 193.299 86.4632 193.689 86.4632C195.939 86.4732 198.179 86.2432 200.399 85.8932C201.759 85.6832 203.129 85.4732 204.469 85.1732C207.679 84.4732 210.739 83.3232 213.699 81.9132C219.139 79.3332 223.959 75.9132 227.949 71.3632C229.829 69.2132 231.439 66.8932 232.739 64.3532C232.859 64.1132 232.919 63.8532 233.009 63.5932C232.569 63.0932 232.239 62.5632 231.709 62.2832C231.589 62.3232 231.539 62.3332 231.519 62.3532C231.329 62.6432 231.129 62.9432 230.949 63.2432C229.629 65.5432 228.139 67.7132 226.399 69.7132C222.439 74.2832 217.679 77.7832 212.149 80.2232C210.169 81.0932 208.159 81.9332 206.069 82.5132C202.179 83.5832 198.219 84.2232 194.179 84.3532C193.789 84.3632 193.389 84.3732 192.999 84.4132C192.779 84.4332 192.569 84.5332 192.359 84.6032C192.259 85.2332 192.239 85.7732 192.459 86.4432ZM136.459 149.793C136.399 149.853 136.339 149.913 136.279 149.973C136.429 150.193 136.559 150.433 136.729 150.633C137.389 151.423 138.059 152.193 138.709 152.983C139.169 153.543 139.719 153.973 140.369 154.283C143.579 155.793 146.839 157.183 150.219 158.293C152.539 159.063 154.929 159.573 157.329 160.053C160.399 160.663 163.499 160.923 166.609 161.033C168.769 161.113 170.939 161.013 173.099 160.763C176.319 160.383 179.479 159.763 182.599 158.883C185.159 158.163 185.839 157.713 187.569 155.713C187.669 155.593 187.769 155.473 187.849 155.333C187.879 155.283 187.849 155.193 187.849 155.083C187.429 154.933 187.089 155.213 186.749 155.363C183.939 156.543 180.999 157.293 178.029 157.913C176.219 158.293 174.369 158.493 172.539 158.763C170.539 159.063 168.529 159.053 166.519 158.993C164.749 158.943 162.989 158.713 161.219 158.543C157.719 158.193 154.299 157.423 150.949 156.343C146.699 154.983 142.629 153.183 138.689 151.073C138.309 150.873 137.919 150.673 137.539 150.463C137.179 150.253 136.819 150.023 136.459 149.793ZM192.469 82.0832C192.919 82.1032 193.309 82.1232 193.699 82.1332C196.119 82.1632 198.489 81.7832 200.849 81.3432C202.319 81.0732 203.789 80.7932 205.239 80.4032C208.299 79.5832 211.179 78.2932 213.959 76.8132C215.559 75.9632 217.139 75.0732 218.579 73.9732C221.569 71.6932 224.239 69.0832 226.509 66.0732C227.819 64.3432 228.929 62.4932 229.859 60.5032C229.399 59.9032 228.939 59.3532 228.189 59.0332C228.039 59.2932 227.919 59.4932 227.809 59.6932C225.519 64.0332 222.419 67.7232 218.709 70.9132C214.979 74.1232 210.649 76.2732 206.039 77.8532C202.749 78.9832 199.339 79.6132 195.869 79.8532C195.009 79.9132 194.139 79.9132 193.269 79.9432C192.959 79.9532 192.629 79.9332 192.359 80.2332C192.249 80.7832 192.239 81.3532 192.469 82.0832ZM234.619 65.4732C234.339 65.9132 234.109 66.2232 233.919 66.5632C231.959 70.0132 229.559 73.1132 226.659 75.8332C223.439 78.8532 219.859 81.3332 215.919 83.2932C214.339 84.0832 212.669 84.7132 211.069 85.4632C208.499 86.6532 205.799 87.3332 203.019 87.7232C201.589 87.9232 200.239 88.2332 199.099 89.1732C199.009 89.2432 198.899 89.3032 198.799 89.3632C196.709 90.7832 194.679 92.2732 192.909 94.0932C192.079 94.9432 191.949 95.8432 192.449 97.1432C192.669 96.9632 192.889 96.8132 193.079 96.6332C194.399 95.3932 195.719 94.1432 197.169 93.0532C198.969 91.7032 200.909 90.5632 202.829 89.4132C204.609 88.3432 206.529 87.6932 208.569 87.3232C210.199 87.0332 211.799 86.6232 213.409 86.2032C215.049 85.7832 216.649 85.2132 218.129 84.3432C219.589 83.4832 221.039 82.6032 222.479 81.7132C225.009 80.1532 227.309 78.2932 229.399 76.1932C231.859 73.7332 233.909 70.9332 235.589 67.8732C235.759 67.5632 235.889 67.2432 236.049 66.9332C235.709 66.3132 235.249 65.9032 234.619 65.4732ZM192.329 77.5232C192.639 77.5632 192.869 77.6132 193.099 77.6032C194.589 77.5232 196.089 77.4932 197.579 77.3332C200.329 77.0332 203.019 76.4532 205.639 75.5732C209.479 74.2832 213.039 72.4432 216.259 69.9932C220.569 66.7232 223.809 62.5532 226.369 57.8232C226.459 57.6632 226.489 57.4632 226.549 57.2632C226.069 56.7132 225.639 56.1632 224.989 55.8932C224.879 55.9732 224.789 56.0032 224.749 56.0632C224.619 56.2632 224.499 56.4632 224.389 56.6732C223.209 58.8132 221.879 60.8632 220.299 62.7332C217.679 65.8632 214.739 68.6032 211.129 70.6232C207.059 72.8932 202.749 74.4432 198.129 75.0632C196.609 75.2732 195.069 75.3232 193.539 75.4432C193.119 75.4732 192.669 75.3832 192.259 75.7032C192.119 76.2732 192.129 76.8432 192.329 77.5232ZM192.329 72.9932C192.509 73.0732 192.579 73.1232 192.659 73.1332C192.819 73.1532 192.969 73.1732 193.129 73.1632C195.579 73.1432 197.999 72.8532 200.399 72.3232C203.149 71.7132 205.759 70.7432 208.289 69.5232C210.029 68.6832 211.689 67.7032 213.239 66.5332C217.149 63.5832 220.139 59.8732 222.479 55.6032C222.739 55.1232 222.949 54.6232 223.169 54.1632C223.059 53.9832 223.009 53.8632 222.929 53.7932C222.609 53.5032 222.279 53.2232 221.929 52.9632C221.789 52.8632 221.599 52.8232 221.399 52.7532C221.269 52.9832 221.169 53.1432 221.079 53.3132C219.639 55.9932 217.909 58.4732 215.899 60.7732C212.719 64.4232 208.789 66.9432 204.329 68.7332C202.489 69.4732 200.559 69.8532 198.639 70.3032C196.909 70.7132 195.129 70.8132 193.359 70.9232C193.019 70.9432 192.679 71.0032 192.329 71.0432C192.059 71.7432 192.269 72.3432 192.329 72.9932ZM189.709 60.4632C189.919 59.9432 189.829 59.3832 189.879 58.8432C189.939 58.1532 189.689 57.6132 189.159 57.1832C188.359 56.5432 187.599 55.8532 186.769 55.2532C182.479 52.1432 177.649 50.8432 172.399 51.1932C168.769 51.4332 165.219 52.1732 161.809 53.4932C160.929 53.8332 159.979 54.0732 159.209 54.5832C158.439 55.0932 157.849 55.8832 157.199 56.5732C156.849 56.9332 156.459 57.2632 156.189 57.7132C156.559 57.9932 156.829 57.7332 157.089 57.6232C159.869 56.5132 162.679 55.4832 165.589 54.7432C168.939 53.8932 172.309 53.4832 175.769 53.8032C178.479 54.0532 181.009 54.8432 183.429 56.0632C185.409 57.0732 187.179 58.3732 188.809 59.8832C189.069 60.1232 189.249 60.4632 189.709 60.4632ZM218.069 49.5932C217.989 49.6432 217.939 49.6532 217.919 49.6732C217.829 49.7932 217.729 49.9232 217.659 50.0532C216.489 52.3032 215.099 54.3832 213.489 56.3432C209.969 60.6232 205.509 63.4232 200.259 65.0632C197.949 65.7832 195.589 66.1832 193.179 66.3432C192.879 66.3632 192.579 66.4332 192.249 66.4832C192.129 67.2432 192.099 67.9232 192.349 68.6732C192.859 68.6632 193.319 68.6932 193.789 68.6432C194.769 68.5532 195.749 68.4332 196.729 68.3132C201.799 67.6432 206.389 65.7332 210.489 62.6932C214.089 60.0232 216.849 56.5932 218.959 52.6532C219.179 52.2332 219.389 51.8132 219.589 51.3832C219.689 51.1632 219.719 50.8832 219.519 50.7232C219.019 50.3432 218.659 49.7932 218.069 49.5932ZM193.309 149.143C193.069 149.603 193.199 149.943 193.399 150.303C193.659 150.783 193.879 151.293 194.129 151.783C194.329 152.163 194.509 152.573 194.779 152.893C195.489 153.743 196.199 154.593 196.979 155.363C200.759 159.083 205.269 161.613 210.279 163.243C213.059 164.143 215.919 164.693 218.859 164.793C220.999 164.863 223.119 164.793 225.219 164.423C229.749 163.633 233.879 161.833 237.759 159.413C237.819 159.373 237.839 159.253 237.939 159.033C237.439 159.253 237.089 159.403 236.739 159.563C234.379 160.683 231.899 161.463 229.369 162.073C225.539 162.993 221.639 163.153 217.739 162.773C213.949 162.403 210.309 161.373 206.849 159.763C201.919 157.453 197.749 154.143 194.249 149.983C194.019 149.693 193.829 149.323 193.309 149.143ZM192.209 64.1132C195.219 63.9632 198.079 63.5032 200.819 62.4732C204.359 61.1432 207.569 59.2632 210.239 56.5432C212.709 54.0132 214.749 51.2032 216.179 47.9532C215.719 47.2832 215.199 46.7932 214.509 46.3832C214.349 46.6332 214.209 46.8132 214.109 47.0132C213.189 48.7532 212.109 50.4032 210.919 51.9732C209.139 54.3132 207.039 56.3232 204.499 57.8332C200.919 59.9532 197.099 61.3132 192.929 61.6232C192.669 61.6432 192.409 61.7332 192.139 61.7832C191.989 62.5532 191.999 63.2432 192.209 64.1132ZM163.639 50.3132C163.989 50.3032 164.219 50.3332 164.439 50.2932C165.329 50.1032 166.209 49.8932 167.089 49.7032C170.029 49.0832 172.989 48.7532 176.009 48.9832C178.669 49.1832 181.219 49.7832 183.649 50.8732C185.529 51.7132 187.279 52.7632 188.889 54.0432C189.119 54.2232 189.319 54.5232 189.669 54.4532C189.719 54.4132 189.769 54.3932 189.769 54.3632C189.759 53.5432 189.749 52.7232 189.739 51.9032C189.269 51.4932 188.799 51.0832 188.319 50.6732C188.259 50.6232 188.199 50.5732 188.129 50.5332C185.029 48.2132 181.539 46.8632 177.699 46.4432C174.789 46.1332 171.879 46.3132 168.989 46.8032C168.369 46.9032 167.749 47.0432 167.139 47.1732C166.709 47.2632 166.329 47.4632 166.009 47.7832C165.339 48.4432 164.649 49.0932 163.979 49.7632C163.859 49.8832 163.789 50.0632 163.639 50.3132ZM192.079 59.2432C193.219 59.4332 194.219 59.1932 195.209 59.0032C198.499 58.3832 201.529 57.1032 204.289 55.2132C207.099 53.2932 209.239 50.7432 211.059 47.9032C212.199 46.1232 212.479 45.5332 212.629 44.6132C212.169 44.1232 211.719 43.5832 211.019 43.2332C210.869 43.4932 210.749 43.6832 210.649 43.8832C208.869 47.2132 206.679 50.2132 203.599 52.4732C201.389 54.0932 199.029 55.3932 196.369 56.1132C195.269 56.4132 194.159 56.6732 193.009 56.7432C192.659 56.7632 192.289 56.7632 192.019 57.1832C192.009 57.4632 191.989 57.8132 191.999 58.1632C191.999 58.4832 192.039 58.7932 192.079 59.2432ZM145.549 159.123C145.549 159.163 145.529 159.213 145.549 159.233C145.679 159.373 145.789 159.533 145.949 159.653C147.849 161.083 149.909 162.223 152.079 163.173C152.399 163.313 152.749 163.403 153.099 163.473C154.759 163.813 156.409 164.163 158.079 164.453C161.969 165.123 165.899 165.303 169.849 165.223C172.589 165.173 175.139 164.493 177.569 163.303C178.129 163.023 178.669 162.693 179.209 162.363C179.319 162.293 179.379 162.133 179.549 161.913C179.179 161.943 178.949 161.943 178.739 161.983C177.809 162.173 176.899 162.423 175.969 162.563C172.529 163.093 169.069 163.163 165.599 163.083C163.039 163.023 160.499 162.723 157.969 162.293C153.959 161.613 150.049 160.563 146.229 159.183C145.999 159.113 145.789 158.963 145.549 159.123ZM207.819 40.1332C207.659 40.3032 207.519 40.3932 207.459 40.5232C206.849 41.7632 206.059 42.8932 205.229 44.0032C202.149 48.1032 198.179 50.8032 193.089 51.7732C192.709 51.8432 192.299 51.8632 192.029 52.1732C191.869 53.4232 191.889 53.6432 192.229 54.3732C192.679 54.3632 193.159 54.4132 193.609 54.3232C194.569 54.1332 195.529 53.9032 196.469 53.6132C199.139 52.7832 201.529 51.4332 203.589 49.5432C205.609 47.6932 207.339 45.6132 208.579 43.1432C208.819 42.6532 209.219 42.2432 209.329 41.6532C209.149 41.4432 208.979 41.2232 208.789 41.0332C208.489 40.7332 208.169 40.4532 207.819 40.1332ZM169.469 44.2632C170.239 44.3432 170.689 44.2732 171.159 44.2332C171.829 44.1732 172.489 44.1032 173.159 44.0732C174.929 43.9832 176.699 44.1332 178.459 44.3032C180.639 44.5032 182.709 45.0832 184.719 45.9232C185.989 46.4532 187.199 47.1132 188.349 47.8832C188.729 48.1432 189.069 48.4932 189.609 48.5332C189.879 48.0032 189.749 47.4432 189.809 46.9132C189.879 46.2932 189.609 45.8832 189.119 45.5232C187.149 44.0232 184.939 43.0332 182.579 42.3432C179.389 41.4132 176.129 41.4132 172.859 41.6332C172.449 41.6632 172.079 41.7732 171.779 42.0532C171.069 42.7132 170.369 43.3932 169.469 44.2632ZM240.389 72.1932C240.249 72.3832 240.129 72.5332 240.029 72.6932C239.429 73.6132 238.849 74.5532 238.239 75.4732C237.269 76.9132 236.139 78.2232 234.969 79.5032C234.769 79.7232 234.449 79.8932 234.589 80.3432C234.929 80.4532 235.299 80.5832 235.669 80.6932C238.599 81.5432 241.349 82.7832 243.949 84.3632C246.719 86.0432 249.289 87.9832 251.599 90.2632C251.739 90.4032 251.849 90.6832 252.139 90.5232C252.129 90.4232 252.149 90.3432 252.119 90.2732C251.519 89.0732 250.909 87.8832 250.319 86.6832C250.119 86.2832 249.799 86.0032 249.449 85.7432C245.989 83.1732 242.339 80.9532 238.239 79.5332C238.039 79.4632 237.759 79.4532 237.699 79.0932C239.249 77.4732 240.659 75.7032 241.579 73.6132C241.259 73.0332 240.989 72.5232 240.389 72.1932ZM204.349 36.8732C204.129 37.1832 204.019 37.3332 203.919 37.4932C203.499 38.1532 203.099 38.8432 202.649 39.4832C200.539 42.5532 197.759 44.8032 194.279 46.1632C193.659 46.4032 193.009 46.6032 192.379 46.7932C192.029 46.9032 191.829 47.1032 191.829 47.4632C191.829 47.9732 191.829 48.4932 191.859 49.0032C191.889 49.5332 192.109 49.6932 192.639 49.5732C193.949 49.2832 195.239 48.9132 196.459 48.3432C200.379 46.4932 203.279 43.5832 205.359 39.8132C205.609 39.3732 205.869 38.9232 205.849 38.2732C205.409 37.8832 204.939 37.4232 204.349 36.8732ZM189.549 42.8432C189.719 42.1532 189.769 40.8532 189.619 40.4732C189.549 40.2932 189.439 40.1132 189.299 39.9932C189.069 39.7832 188.799 39.6132 188.529 39.4432C187.009 38.5132 185.389 37.8132 183.679 37.3332C181.929 36.8432 180.139 36.6232 178.339 36.4232C177.799 36.3632 177.349 36.4932 176.959 36.9032C176.419 37.4732 175.839 38.0032 175.299 38.5732C175.179 38.6932 175.149 38.8932 175.029 39.1432C176.389 39.2332 177.639 39.2532 178.879 39.4032C180.129 39.5532 181.379 39.7332 182.589 40.0432C183.799 40.3532 184.979 40.8232 186.159 41.2332C187.359 41.6532 188.369 42.4332 189.549 42.8432ZM200.849 33.6332C200.389 34.3232 199.979 34.9432 199.579 35.5632C198.239 37.5932 196.589 39.3132 194.439 40.5032C193.789 40.8632 193.119 41.2032 192.429 41.4732C191.899 41.6832 191.689 42.0032 191.729 42.5432C191.759 42.9732 191.729 43.4132 191.779 43.8432C191.799 44.0532 191.939 44.2532 192.009 44.4332C196.079 43.7932 200.989 39.3332 202.599 35.1532C202.169 34.7232 201.729 34.2832 201.279 33.8432C201.189 33.7732 201.069 33.7432 200.849 33.6332ZM197.679 30.0832C197.249 30.4032 197.089 30.8532 196.839 31.2432C195.619 33.1032 194.299 34.8532 192.119 35.6732C191.889 35.7632 191.689 35.9232 191.689 36.1832C191.669 37.1132 191.569 38.0532 191.859 39.0232C192.129 38.9932 192.359 38.9932 192.579 38.9232C193.569 38.6132 194.449 38.0832 195.199 37.3832C196.149 36.5032 197.039 35.5532 197.779 34.4832C198.349 33.6432 198.909 32.7932 199.299 31.8232C198.799 31.1732 198.359 30.5332 197.679 30.0832ZM179.659 34.1532C179.679 34.1832 179.689 34.2432 179.719 34.2432C179.949 34.2932 180.179 34.3432 180.409 34.3732C182.679 34.6932 184.919 35.1332 187.029 36.0832C187.639 36.3632 188.229 36.6832 188.839 36.9532C189.039 37.0432 189.269 37.0532 189.499 37.1032C189.689 36.4932 189.539 35.9332 189.589 35.3932C189.649 34.6632 189.289 34.2232 188.669 33.9032C187.269 33.1732 185.809 32.5732 184.279 32.1732C183.589 31.9932 182.899 31.8532 182.199 31.7032C181.919 31.6432 181.619 31.6432 181.429 31.8732C180.819 32.5832 180.229 33.3132 179.629 34.0432C179.619 34.0632 179.649 34.1132 179.659 34.1532ZM194.729 26.0732C194.519 26.2332 194.409 26.2832 194.339 26.3732C193.699 27.2932 192.949 28.0832 191.919 28.5832C191.589 28.7432 191.529 29.0432 191.539 29.3832C191.569 30.4832 191.589 31.5932 191.619 32.6932C191.619 32.8432 191.679 32.9932 191.729 33.1932C191.949 33.1632 192.149 33.1732 192.319 33.1032C192.959 32.8432 193.459 32.3932 193.839 31.8332C194.559 30.8032 195.259 29.7532 195.959 28.7032C196.069 28.5432 196.109 28.3532 196.189 28.1632C195.809 27.4032 195.309 26.7632 194.729 26.0732ZM189.419 31.6132C189.499 30.6832 189.459 29.9432 189.419 29.2132C189.399 28.8632 189.189 28.6332 188.899 28.4832C187.779 27.9032 186.619 27.4432 185.409 27.0932C185.119 27.0132 184.859 27.0832 184.689 27.3432C184.329 27.9032 183.959 28.4532 183.619 29.0232C183.539 29.1632 183.549 29.3632 183.519 29.5632C184.529 29.8732 185.469 30.1332 186.389 30.4532C187.349 30.7832 188.279 31.1732 189.419 31.6132ZM240.909 78.4832C241.309 78.6832 241.579 78.8232 241.859 78.9532C242.789 79.3832 243.719 79.7932 244.639 80.2532C245.239 80.5532 245.799 80.9232 246.379 81.2432C246.499 81.3132 246.649 81.3132 246.939 81.3832C246.779 81.0432 246.709 80.8332 246.589 80.6432C246.169 79.9732 245.809 79.2632 245.289 78.6732C244.919 78.2532 244.329 78.0132 243.809 77.6732C243.869 77.3932 243.939 77.1032 243.999 76.8132C243.619 76.3732 243.459 75.8232 242.909 75.5132C242.259 76.4932 241.619 77.4232 240.909 78.4832ZM189.259 25.9932C189.429 25.0532 189.339 24.2332 189.289 23.4132C189.279 23.2432 189.169 23.0032 189.029 22.9232C188.539 22.6232 188.049 22.2732 187.379 22.3232C186.969 23.1532 186.379 23.8932 186.229 24.8932C187.229 25.2632 188.129 25.7332 189.259 25.9932ZM191.609 26.3232C191.799 26.2932 191.939 26.3132 192.019 26.2532C192.599 25.8332 193.059 25.3032 193.429 24.6932C193.609 24.3932 193.619 24.1232 193.459 23.8032C192.899 22.7232 192.349 21.6332 191.789 20.5532C191.729 20.4432 191.579 20.3832 191.439 20.2732C191.299 21.4632 191.409 25.3532 191.609 26.3232ZM192.319 88.7132C192.139 90.1332 192.179 90.7332 192.479 91.3732C192.549 91.3632 192.649 91.3832 192.699 91.3432C193.719 90.5332 194.729 89.7232 195.729 88.9132C195.849 88.8232 195.969 88.6932 195.839 88.5132C194.359 88.3832 193.239 88.4432 192.319 88.7132ZM189.079 16.7732C188.549 17.8232 188.309 18.9232 188.059 20.0232C188.029 20.1632 188.049 20.3732 188.139 20.4632C188.409 20.7532 188.749 20.9432 189.249 20.7332C189.289 19.4132 189.259 18.0932 189.079 16.7732Z" fill="#245E2F"/>
<path d="M112.199 299.843V290.653H116.319C117.379 290.653 118.189 290.863 118.759 291.293C119.329 291.713 119.609 292.293 119.609 293.033C119.609 293.533 119.499 293.953 119.279 294.293C119.059 294.633 118.759 294.893 118.379 295.083C117.999 295.263 117.599 295.363 117.159 295.363L117.399 294.973C117.929 294.973 118.389 295.063 118.789 295.253C119.189 295.443 119.509 295.703 119.749 296.063C119.989 296.423 120.099 296.853 120.099 297.383C120.099 298.173 119.799 298.783 119.209 299.213C118.619 299.643 117.739 299.863 116.579 299.863H112.199V299.843ZM113.509 298.783H116.529C117.259 298.783 117.809 298.663 118.199 298.413C118.589 298.163 118.779 297.783 118.779 297.253C118.779 296.723 118.589 296.333 118.199 296.083C117.809 295.833 117.259 295.713 116.529 295.713H113.389V294.653H116.199C116.869 294.653 117.379 294.533 117.749 294.283C118.119 294.033 118.299 293.673 118.299 293.183C118.299 292.693 118.119 292.323 117.749 292.083C117.379 291.833 116.869 291.713 116.199 291.713H113.509V298.783Z" fill="black"/>
<path d="M125.819 299.843V290.653H129.409C130.219 290.653 130.899 290.783 131.469 291.033C132.039 291.283 132.479 291.653 132.779 292.133C133.089 292.613 133.239 293.183 133.239 293.853C133.239 294.523 133.089 295.093 132.779 295.563C132.469 296.043 132.039 296.403 131.469 296.663C130.899 296.913 130.209 297.043 129.409 297.043H126.549L127.139 296.443V299.843H125.819ZM127.139 296.573L126.549 295.933H129.369C130.209 295.933 130.849 295.753 131.279 295.393C131.709 295.033 131.929 294.523 131.929 293.863C131.929 293.203 131.709 292.693 131.279 292.343C130.849 291.983 130.209 291.803 129.369 291.803H126.549L127.139 291.143V296.573ZM131.969 299.843L129.629 296.503H131.039L133.399 299.843H131.969Z" fill="black"/>
<path d="M140.359 298.703H145.719V299.843H139.049V290.653H145.539V291.793H140.369V298.703H140.359ZM140.239 294.613H144.969V295.733H140.239V294.613Z" fill="black"/>
<path d="M150.129 299.843L154.289 290.653H155.589L159.769 299.843H158.389L154.669 291.383H155.199L151.479 299.843H150.129ZM151.909 297.543L152.259 296.493H157.439L157.819 297.543H151.909Z" fill="black"/>
<path d="M166.189 299.843V291.793H163.039V290.653H170.639V291.793H167.489V299.843H166.189Z" fill="black"/>
<path d="M177.059 299.843H175.749V290.653H177.059V299.843ZM182.459 295.743H176.929V294.603H182.459V295.743ZM182.339 290.653H183.649V299.843H182.339V290.653Z" fill="black"/>
<path d="M201.449 299.953C200.749 299.953 200.099 299.833 199.499 299.593C198.899 299.353 198.379 299.023 197.939 298.603C197.499 298.183 197.159 297.683 196.919 297.113C196.669 296.543 196.549 295.923 196.549 295.243C196.549 294.573 196.669 293.953 196.919 293.383C197.169 292.813 197.509 292.313 197.939 291.893C198.379 291.473 198.899 291.143 199.489 290.903C200.089 290.663 200.739 290.553 201.449 290.553C202.149 290.553 202.799 290.673 203.389 290.903C203.989 291.133 204.499 291.463 204.939 291.883C205.379 292.313 205.719 292.803 205.959 293.383C206.199 293.953 206.319 294.583 206.319 295.253C206.319 295.933 206.199 296.563 205.959 297.133C205.719 297.703 205.379 298.203 204.939 298.623C204.499 299.043 203.989 299.373 203.389 299.613C202.799 299.833 202.149 299.953 201.449 299.953ZM201.449 298.783C201.959 298.783 202.429 298.693 202.859 298.523C203.289 298.343 203.669 298.103 203.989 297.783C204.309 297.463 204.559 297.093 204.739 296.663C204.919 296.233 205.009 295.763 205.009 295.253C205.009 294.743 204.919 294.283 204.739 293.853C204.559 293.433 204.309 293.053 203.989 292.733C203.669 292.413 203.289 292.163 202.859 291.983C202.429 291.813 201.959 291.723 201.449 291.723C200.929 291.723 200.459 291.813 200.019 291.983C199.589 292.163 199.209 292.403 198.879 292.733C198.559 293.053 198.299 293.433 198.119 293.853C197.939 294.273 197.849 294.743 197.849 295.253C197.849 295.763 197.939 296.233 198.119 296.663C198.299 297.093 198.549 297.463 198.879 297.783C199.199 298.103 199.579 298.353 200.019 298.523C200.459 298.693 200.929 298.783 201.449 298.783Z" fill="black"/>
<path d="M213.329 299.843H212.019V290.653H218.509V291.793H213.329V299.843ZM213.199 295.003H217.939V296.133H213.199V295.003Z" fill="black"/>
<path d="M231.239 299.843V290.653H232.549V298.703H237.529V299.843H231.239Z" fill="black"/>
<path d="M242.719 299.843V290.653H244.029V299.843H242.719Z" fill="black"/>
<path d="M251.779 299.843H250.469V290.653H256.959V291.793H251.779V299.843ZM251.649 295.003H256.389V296.133H251.649V295.003Z" fill="black"/>
<path d="M263.799 298.703H269.159V299.843H262.489V290.653H268.979V291.793H263.799V298.703ZM263.679 294.613H268.409V295.733H263.679V294.613Z" fill="black"/>
</svg>
